<?xml version="1.0" encoding="UTF-8" standalone="no"?>
<svg
   xmlns:dc="http://purl.org/dc/elements/1.1/"
   xmlns:cc="http://creativecommons.org/ns#"
   xmlns:rdf="http://www.w3.org/1999/02/22-rdf-syntax-ns#"
   xmlns:svg="http://www.w3.org/2000/svg"
   xmlns="http://www.w3.org/2000/svg"
   viewBox="-50 5 377.95334 151.18134"
   height="75"
   width="220"
   xml:space="preserve"
   id="svg2"
   version="1.1"><metadata
     id="metadata8"><rdf:RDF><cc:Work
         rdf:about=""><dc:format>image/svg+xml</dc:format><dc:type
           rdf:resource="http://purl.org/dc/dcmitype/StillImage" /></cc:Work></rdf:RDF></metadata><defs
     id="defs6"><clipPath
       id="clipPath18"
       clipPathUnits="userSpaceOnUse"><path
         id="path16"
         d="M 0,0 H 283.465 V 113.386 H 0 Z" /></clipPath></defs><g
     transform="matrix(1.3333333,0,0,-1.3333333,0,151.18133)"
     id="g10"><g
       id="g12"><g
         clip-path="url(#clipPath18)"
         id="g14"><g
           transform="translate(81.8528,60.9708)"
           id="g20"><path
             id="path22"
             style="fill:hsl(215, 80%, 78%);fill-opacity:1;fill-rule:nonzero;stroke:none"
             d="m 0,0 c -0.26,0 -1.809,-0.827 -2.061,-1.041 -1.218,1.311 -0.383,0.922 -1.504,0.628 -0.504,0.552 -1.008,1.109 -1.513,1.652 -0.12,-0.037 -0.23,-0.084 -0.341,-0.13 0.045,-0.284 1.019,-2.267 0.846,-2.42 -0.615,0.354 -1.218,0.707 -1.822,1.063 -0.097,2.146 2.097,2.349 2.995,3.8 -0.042,0.07 -0.076,0.131 -0.11,0.189 -2.972,0.472 -6.45,1.394 -9.104,-0.165 -0.121,-0.708 -1.218,-3.989 -1.602,-3.989 -0.275,0.105 -0.548,0.21 -0.813,0.304 0.057,0.183 0.593,0.148 0.758,0.154 -0.286,1.157 -0.352,1.549 -1.24,2.208 -1.46,1.737 -2.326,3.66 -3.379,5.572 -0.811,1.369 -2.072,2.715 -2.457,4.037 -0.142,0.048 -0.275,0.095 -0.407,0.132 -0.053,0.212 -0.097,0.413 -0.142,0.613 -0.362,2.171 -1.811,3.305 -0.362,5.384 -0.076,0.47 -0.144,0.932 -0.208,1.392 -0.516,0.319 -0.482,0.295 -0.658,0.791 0.472,0.378 0.997,-0.2 1.404,-0.591 3.982,-0.53 1.394,4.521 -0.813,1.89 -1.261,0.544 0.406,1.699 0.144,3.15 -0.943,0.32 -1.689,0.662 -2.491,0.06 -0.778,-1.204 0.516,-1.901 0.438,-3.188 -1.008,-0.094 -1.722,1.653 -3.048,0.508 -1.263,-4.19 1.656,-1.499 3.192,-1.77 0.121,-0.946 -1.746,-0.981 -0.252,-2.904 -2.239,-0.602 -4.576,-0.673 -6.802,-1.016 -0.078,-0.248 -0.155,-0.497 -0.231,-0.755 0.098,-0.059 0.197,-0.117 0.307,-0.176 -0.01,-0.283 -0.11,-0.615 -0.076,-1.006 l 0.297,-0.139 c -0.2,-0.438 -0.583,-0.297 -0.024,-0.897 1.428,-0.214 3.849,0.459 5.442,0.624 0,-2.691 -7.295,-8.062 -4.849,-9.88 0.46,0.542 0.804,1.332 0.937,1.521 0.236,0.338 2.035,3.117 2.332,3.436 0.066,-0.024 0.133,-0.047 0.21,-0.083 0.294,-0.954 -1.153,-4.484 -1.528,-5.761 -0.173,-1.108 -0.228,-2.35 -0.819,-3.387 -0.469,0.334 0.201,0.576 -0.606,0.804 0.44,1.036 -0.053,0.742 0.9,1.498 -0.087,1.475 -1.94,2.09 -2.885,2.62 0.076,1.69 -0.646,1.819 -1.722,1.098 0.11,-0.082 0.22,-0.176 0.339,-0.271 V 5.239 C -34.172,4.638 -35.082,4 -35.906,3.469 c -0.799,0.521 0.68,3.695 0.866,4.415 -0.087,2.692 0.013,4.758 -2.565,5.101 -0.208,-0.403 0.197,-2.067 0.263,-2.728 -1.087,-1.321 -2.271,-2.161 -1.174,-3.753 0.155,-1.488 0.472,-1.687 1.898,-2.066 0,-0.083 0.011,-0.178 0.021,-0.271 h -1.305 c 0,-0.131 0,-0.272 0.011,-0.416 0.241,-0.129 1.031,0.036 1.404,0.075 0,-0.085 0,-0.179 0.011,-0.274 -0.297,-0.154 -1.108,-0.071 -1.47,-0.154 -0.043,-0.767 -0.121,-1.511 -0.274,-2.266 -0.175,-0.295 -1.163,-1.949 -1.349,-1.745 0.867,1.745 1.436,3.244 -0.637,1.284 -1.219,-0.541 -0.932,0.958 -2.093,-0.85 -0.835,0.65 -0.803,0.733 -1.636,0.697 -0.099,0.12 -0.197,0.235 -0.286,0.354 -0.296,0.011 -0.58,0.011 -0.866,0.011 -0.1,-0.187 -0.199,-0.377 -0.286,-0.578 0.066,-0.175 0.142,-0.364 0.22,-0.553 -0.078,-1.924 1.284,-2.043 2.72,-2.881 -0.241,-0.259 -1.898,0.719 -2.468,0.638 -0.065,-0.129 -0.131,-0.262 -0.186,-0.392 l 0.428,-0.6 c 0.845,-0.071 2.271,-1.512 3.116,-2.15 -0.144,-1.534 -0.275,-3.069 -0.407,-4.604 0.076,-0.044 0.153,-0.105 0.242,-0.164 -0.134,-0.697 -0.528,-1.937 -0.528,-2.633 0.725,-0.649 0.034,-0.944 0,-2.16 0.801,-0.861 0.583,-1.558 0.559,-2.882 0.113,-0.094 0.233,-0.188 0.352,-0.294 0.013,-0.742 0.021,-1.499 0.045,-2.256 0.175,-0.151 0.351,-0.305 0.538,-0.46 0.021,-0.932 0.097,-1.603 0.305,-2.596 -0.602,-0.318 -1.174,-0.213 -1.809,-0.521 l 0.231,-0.282 c 2.008,-0.106 3.433,0.92 5.287,0.92 3.061,-1.641 2.533,-3.079 6.198,-1.001 1.767,0.248 2.239,-2.904 4.684,-1.595 3.719,3.105 2.777,1.523 5.979,-0.768 0.407,0.012 0.812,0.012 1.219,0.012 3.192,2.241 2.05,3.222 5.582,0.343 1.678,-0.284 2.843,2.008 3.896,2.008 2.743,-0.982 3.29,-1.181 6.23,0.342 -0.932,1.203 -1.142,-0.498 -1.985,-0.498 -0.087,0.474 0.024,0.816 0.034,1.206 0.856,0.813 1.711,1.628 2.567,2.43 v 0.047 c -0.548,0.283 -1.097,0.557 -1.635,0.827 0.045,0.921 -0.055,1.926 0.602,2.49 -0.602,3.282 -0.36,6.859 -0.14,10.14 0.228,0.356 0.459,0.709 0.69,1.052 0.922,1.098 2.095,1.382 3.048,2.466 L 0,-3.731 C -0.953,-3.934 -1.481,-4.133 -2.281,-4.559 -2.656,-3.616 1.765,-3.983 0,0 m -30.422,5.119 0.048,-0.604 c -0.032,0 -0.063,0 -0.098,-0.015 -0.359,0.315 -0.293,0.369 -0.264,0.671 0.133,0.017 0.133,0.017 0.314,-0.052 m 0.388,0.072 c -0.372,0.148 -0.421,0.512 -0.51,0.734 0.053,0.071 0.105,0.126 0.155,0.182 0.616,-0.127 0.355,-0.916 0.355,-0.916 m 0.305,1.599 c 0.17,-0.375 0.216,-0.473 0.192,-1.092 -0.373,0.534 -0.384,0.583 -0.417,1.092 z m 0.322,0.746 c 0.098,-0.191 0.213,-0.402 0.335,-0.615 -0.103,-0.379 -0.103,-0.379 -0.137,-0.362 -0.183,0.255 -0.339,0.491 -0.495,0.723 z m 0.455,0.701 c 0.191,-0.22 0.488,-0.424 0.455,-0.946 -0.079,-0.035 -0.154,-0.085 -0.218,-0.137 -0.158,0.287 -0.316,0.578 -0.47,0.848 0.078,0.081 0.154,0.167 0.233,0.235 m 0.841,0.369 c 0,-0.167 0,-0.335 0.014,-0.501 -0.085,-0.047 -0.17,-0.109 -0.255,-0.169 -0.339,0.565 -0.27,0.535 -0.298,1.005 0.356,0 0.238,-0.253 0.539,-0.335 m 0.504,0.091 C -27.67,8.628 -27.748,8.526 -27.826,8.526 l -0.327,0.755 c 0.033,0.066 0.063,0.115 0.108,0.169 0.312,-0.054 0.357,-0.236 0.438,-0.753 m 0.182,0.746 c -0.173,0.306 -0.197,0.437 -0.207,0.686 0.053,0.058 0.108,0.117 0.173,0.176 0.229,-0.167 0.132,-0.97 0.034,-0.862 m 18.541,-33.597 c 0.063,0.106 0.142,0.201 0.218,0.294 1.381,-0.294 1.921,-0.14 3.368,0.225 -0.01,-0.343 -0.021,-0.697 -0.021,-1.051 l -1.822,-0.106 c -1.688,0.589 -1.688,0.589 -1.743,0.638 m -6.758,8.051 c -0.593,0.755 -2.699,2.998 -2.699,3.918 1.131,0.533 2.15,-1.11 2.874,-1.981 1.711,-1.759 3.948,-2.824 6.142,-3.955 5.968,-2.904 5.968,-2.904 6.056,-2.975 -1.37,-1.854 -2.061,-2.315 -4.147,-2.608 -4.398,1.061 -5.66,3.883 -8.226,7.601 m 6.493,11.474 c 0.614,-0.332 1.767,-0.39 2.667,-0.827 -0.089,-0.201 -0.231,-0.671 -0.386,-0.839 -1.239,0.591 -2.433,1.454 -3.234,2.515 0.352,0.488 1.216,0.42 1.788,0.484 0,-0.022 0,-0.046 0.01,-0.082 0.714,0.155 0.877,0.459 1.436,-0.01 L -7.13,-3.78 c -0.811,0 -2.127,0.26 -2.667,-0.319 1.12,-0.011 2.031,-0.094 3.237,-0.354 -0.25,-0.826 -2.127,-0.045 -2.578,0.071 -0.011,-0.082 -0.011,-0.165 -0.011,-0.247 m 2.271,3.246 c 0.11,-0.26 1.131,-3.282 0.625,-2.74 -0.483,1.184 -1.184,1.761 -0.625,2.74 m -2.04,-1.57 c -0.023,0.034 -0.042,0.059 -0.055,0.084 0.438,0.413 0.703,0.566 1.263,0.827 0.076,-0.119 0.163,-0.237 0.252,-0.356 -0.208,-0.376 -1.098,-0.496 -1.46,-0.555 m -15.611,14.534 c -0.044,-0.084 -0.089,-0.169 -0.165,-0.204 -0.108,0.085 -0.218,0.155 -0.328,0.225 0.033,0.074 0.065,0.143 0.11,0.202 0.11,-0.012 0.21,-0.072 0.383,-0.223 m -0.01,0.977 c -0.066,-0.035 -0.121,-0.07 -0.176,-0.105 l -0.297,0.178 v 0.094 c 0.187,0.153 0.132,0.153 0.483,-0.048 -0.01,-0.035 -0.01,-0.07 -0.01,-0.119 m -2.04,-3.811 c 0.021,0.046 0.053,0.094 0.086,0.129 0.142,-0.069 0.284,-0.154 0.428,-0.236 0,-0.117 -0.099,-0.201 -0.207,-0.201 -0.144,0.107 -0.286,0.26 -0.307,0.308 m 0.533,-1.212 c -0.053,-0.013 -0.112,-0.044 -0.152,-0.074 -0.222,0.237 -0.443,0.477 -0.665,0.698 0.264,0.285 0.695,-0.164 0.817,-0.624 m -0.447,1.755 c 0,0.07 0,0.07 0.11,0.319 0.164,-0.095 0.505,-0.166 0.473,-0.532 -0.045,-0.024 -0.089,-0.048 -0.123,-0.083 -0.153,0.107 -0.307,0.2 -0.46,0.296 m 1.373,-2.55 c -0.013,-0.13 -0.023,-0.26 -0.023,-0.389 -0.011,0 -0.024,-0.014 -0.034,-0.024 -0.373,0.212 -0.515,0.496 -0.691,0.614 V 6.148 c 0.276,-0.081 0.593,0.037 0.56,-0.565 C -25.34,5.559 -25.372,5.535 -25.406,5.5 l -0.57,0.506 c -0.637,-2.219 -1.01,-4.804 -0.9,-7.201 0.502,0.378 0.502,0.319 1.174,0.204 0.175,1.275 0.296,2.641 0.69,3.741 0.328,-1.063 0.045,-2.457 -0.1,-3.661 -1.052,-0.247 -1.643,-0.567 -2.51,-0.908 -0.482,-1.04 -0.769,-1.547 -0.692,-3.032 0.12,-0.025 0.241,-0.06 0.362,-0.096 V -5.09 c -0.483,-0.058 -0.559,-0.472 -0.712,-0.931 h -0.034 c -0.034,0 0.055,1.416 0.043,1.545 -1.053,2.479 1.285,6.044 1.766,8.381 0.045,0.757 0.396,3.011 0.922,3.329 0.275,-0.164 0.561,-0.329 0.847,-0.494 m -4.116,-15.206 h 0.295 c 0.199,1.004 0.398,1.642 0.824,2.504 0.265,-0.015 0.527,-0.025 0.803,-0.049 -0.155,-1.297 -0.155,-3.329 -1.702,-3.707 -1.128,0.204 -0.559,4.31 -0.362,4.676 0.108,-0.071 0.221,-0.153 0.341,-0.237 0,-1.002 -0.144,-2.066 -0.199,-3.187 m 0.1,4.097 c -0.045,-0.071 -0.11,-0.154 -0.166,-0.178 -0.538,0.19 -0.866,0.437 -1.215,0.697 0,0.06 0,0.119 0.01,0.179 0.504,-0.035 0.943,-0.119 1.371,-0.698 m -0.407,1.357 c -0.097,0.073 -0.186,0.143 -0.273,0.203 0,0.056 0,0.116 0.01,0.164 0.045,-0.025 0.297,-0.108 0.384,-0.294 -0.042,-0.025 -0.087,-0.049 -0.121,-0.073 m -1.919,-0.436 0.032,-0.202 c 0.057,0.048 0.11,0.083 0.165,0.119 0.517,-0.614 0.538,-1.971 -0.549,-1.971 -1.987,0.448 -1.294,1.806 0.352,2.054 m -1.57,0.13 c -0.735,0.189 -0.985,0.72 0.089,0.72 0.163,-0.306 0.439,-0.578 -0.089,-0.72 m 1.953,0.177 c 0.121,0.118 0.255,0.222 0.384,0.332 0.165,-0.11 0.231,-0.06 0.351,-0.414 -0.152,-0.119 -0.339,-0.13 -0.427,-0.155 -0.284,0.19 -0.284,0.19 -0.308,0.237 m 0.396,1.109 c 0.132,0.084 0.263,0.164 0.405,0.236 0.089,-0.166 0.089,-0.166 0.144,-0.376 -0.044,-0.061 -0.078,-0.131 -0.112,-0.203 h -0.043 c -0.12,0.025 -0.241,0.049 -0.36,0.06 z m 0.363,-2.361 c 0.108,-0.06 0.228,-0.118 0.351,-0.175 0,-0.026 -0.231,-1.856 -0.362,-1.713 -0.582,1.216 -0.561,0.732 0.011,1.888 m 4.87,1.429 c 0,-0.402 -0.89,-0.603 -1.184,-0.672 l -0.132,0.105 c 0.481,0.355 0.678,0.424 1.316,0.567 m -0.373,0.236 c -0.187,-0.046 -0.735,-0.248 -0.835,-0.211 -0.021,0.045 -0.044,0.094 -0.066,0.13 0.384,0.199 0.505,0.399 1,0.364 z m 0.121,-1.206 c -0.231,-0.284 -0.659,-0.494 -0.966,-0.494 l -0.098,0.14 c 0.318,0.249 0.612,0.686 1.064,0.354 m -1.041,-0.955 c 0.085,-0.012 0.174,-0.047 0.36,-0.176 -0.023,0 -0.044,0 -0.055,-0.012 l -0.328,0.141 c 0,0.025 0.011,0.035 0.023,0.047 m 0.492,-0.934 c -0.055,-0.059 -0.1,-0.094 -0.165,-0.094 -0.121,0.085 -0.231,0.154 -0.339,0.225 v 0.19 c 0.229,0.164 0.317,-0.047 0.504,-0.321 m -0.318,-0.623 c -0.044,-0.036 -0.089,-0.072 -0.123,-0.108 -0.087,0.072 -0.163,0.143 -0.239,0.214 0,0.059 0,0.105 0.011,0.153 0.11,-0.083 0.228,-0.165 0.351,-0.259 m -0.451,-0.248 c 0.637,-0.274 0.341,-0.663 0.307,-0.627 -0.394,0.272 -0.525,0.308 -0.307,0.627 m 0.417,-1.381 c -0.021,-0.048 -0.044,-0.108 -0.065,-0.166 -0.111,0.024 -0.221,0.046 -0.318,0.058 -0.043,0.095 -0.078,0.178 -0.11,0.259 0.186,0.131 0.265,0.059 0.493,-0.151 m -0.538,2.892 c -0.021,0 -0.042,0 -0.065,-0.012 -0.066,0.047 -0.132,0.094 -0.187,0.13 0,0.189 0.066,0.189 0.132,0.318 -0.153,0.011 -0.308,0.024 -0.45,0.024 -0.375,1.227 -0.165,1.7 0.153,2.845 0.748,0.249 1.462,0.507 2.317,0.507 0.022,-0.023 0.043,-0.058 0.064,-0.094 -0.733,-1.19 -2.106,-0.189 -1.964,-2.089 -0.097,-0.545 -0.457,-0.664 0.057,-1.005 0.011,-0.201 0.087,-0.352 -0.057,-0.624 m -0.173,-0.331 0.031,-0.199 c -0.055,-0.05 -0.099,-0.095 -0.142,-0.155 -0.065,0.105 -0.12,0.211 -0.173,0.319 z m 0.571,-4.108 c 0,-0.061 0,-0.13 0.009,-0.201 -0.055,-0.048 -0.055,-0.048 -0.121,-0.048 -0.286,0.143 -0.375,0.318 -0.493,0.486 0.01,0.07 0.021,0.128 0.034,0.188 0.273,-0.06 0.273,-0.248 0.571,-0.425 m -0.08,-0.814 -0.032,-0.259 c -0.055,0.01 -0.11,0.01 -0.165,0.01 -0.318,0.046 -0.252,0.236 -0.328,0.378 0.207,0.283 0.207,0.177 0.525,-0.129 m -0.121,-1.204 c -0.36,0.222 -0.788,0.506 -0.788,0.847 0.286,0 0.843,-0.341 0.788,-0.847 m -0.262,-0.709 c -0.108,0.011 -0.219,0.011 -0.329,0.011 -0.076,0.083 -0.152,0.165 -0.22,0.248 0.055,0.096 0.157,0.212 0.241,0.271 0.166,-0.152 0.276,-0.164 0.308,-0.53 m -8.38,1.994 c -0.045,0 -0.089,0 -0.134,-0.011 -1.809,0.319 -2.521,3.777 -1.589,5.087 1.513,1.513 2.392,-3.766 1.723,-5.076 m -1.602,5.998 c -0.055,0.118 -0.11,0.234 -0.165,0.343 0.055,0.08 0.121,0.153 0.186,0.224 0.022,-0.06 0.153,-0.757 -0.021,-0.567 m -0.364,-0.484 c -0.074,0.189 -0.153,0.365 -0.219,0.543 0.145,0.13 0.145,0.13 0.187,0.13 0.144,-0.153 0.152,-0.803 0.032,-0.673 m 6.857,-9.315 c -0.129,-0.389 -0.36,-2.077 -0.822,-2.077 -2.195,0.626 -4.355,2.032 -6.143,3.305 0.428,0.649 0.845,1.192 1.349,1.759 0.494,0 4.826,-2.042 5.616,-2.987 m -7.931,1.086 c 1.743,-0.921 3.523,-2.136 5.397,-3.174 -0.044,-0.427 -0.174,-0.875 -0.339,-1.335 -0.031,0 -0.068,0 -0.089,-0.011 -2.04,0.883 -3.927,1.701 -5.694,2.88 0,0.659 0.428,1.18 0.725,1.64 m -1.208,-1.274 c -0.811,0.745 -1.205,1.074 -1.633,1.971 0.341,0.507 0.231,0.921 0.472,1.404 0.725,-0.473 1.305,-0.885 2.007,-1.568 0,-0.403 -0.833,-1.807 -0.846,-1.807 m 2.426,-2.75 c 1.174,0.625 4.87,-1.37 6.473,-1.889 0.702,-0.284 0.515,-0.449 0.174,-1.157 h -0.063 c -1.297,0.46 -5.849,1.462 -6.584,3.046 m 4.027,-2.895 c 0,-0.294 -0.255,-1.439 -0.68,-1.439 -1.57,0.414 -3.127,1.288 -4.413,2.102 0,0.423 0.187,1.04 0.365,1.335 1.622,-0.555 3.058,-1.146 4.728,-1.998 m 7.92,-3.671 c -0.045,0 -0.078,-0.01 -0.11,-0.022 -2.533,0.472 -5.146,1.098 -7.526,1.831 0.023,0.518 0.12,0.965 0.264,1.403 1.085,0 2.873,-0.777 4.027,-1.095 1.492,-0.191 4.288,0.434 3.345,-2.117 m -4.379,3.178 c -0.152,0.329 -0.052,0.896 -0.031,1.132 2.578,0 5.187,-0.661 7.899,-0.733 0.197,-0.023 0.383,-0.023 0.635,-0.2 0,-0.343 0,-0.696 0.013,-1.05 -0.254,-0.046 -0.506,-0.106 -0.758,-0.166 -2.546,0.189 -5.419,0.13 -7.758,1.017 m 4.369,2.69 c 0.01,-0.378 0.054,-0.812 0.01,-1.32 -0.034,0.01 -0.066,0.01 -0.098,0.01 -2.666,0.165 -4.905,0.708 -7.439,1.368 0.066,0.58 0.176,0.923 0.352,1.371 2.391,-0.603 4.717,-0.957 7.175,-1.429 m -5.135,1.394 c 0,0.718 0.317,1.569 0.658,2.148 2.096,-0.083 4.409,-0.295 6.571,-0.603 0.286,-0.152 0.056,-2.526 0.034,-2.502 -2.381,0.25 -5.134,0.153 -7.263,0.957 m 11.979,-1.832 c 0.055,-0.331 0.065,-0.73 0.023,-1.12 -0.515,0.013 -1.021,0.013 -1.525,0.013 -1.394,0 -3.741,-0.214 -4.915,0.2 l 0.032,1.345 c 1.68,0 4.883,0.295 6.385,-0.438 m 5.737,-2.715 c -1.898,-0.578 -5.386,-0.753 -7.294,-0.753 -0.866,0.283 -0.604,0.861 -0.583,1.64 2.129,0.249 4.356,0.129 6.562,0.06 v 0.497 c -1.12,0 -3.84,-0.663 -3.84,0.977 0.242,0.166 0.549,0.06 0.898,0.024 -0.076,-0.129 -0.152,-0.26 -0.218,-0.403 0.055,-0.08 0.121,-0.164 0.187,-0.258 0.241,0 0.482,0 0.724,-0.012 l -0.065,0.649 c -0.134,0.024 -0.255,0.048 -0.373,0.06 2.665,0.423 2.335,0.178 4.002,-2.481 m -2.907,3.555 -0.874,0.188 c -0.211,0.632 -0.637,1.547 -0.31,1.571 0.134,0.01 1.152,-1.205 1.286,-1.628 -0.037,-0.037 -0.069,-0.083 -0.102,-0.131 m -6.66,2.196 c 1.614,0 3.205,0.189 4.872,-0.237 0.013,-0.578 0.023,-1.167 0.044,-1.758 -0.286,-0.047 -0.569,-0.107 -0.845,-0.166 -1.436,0.096 -2.851,0.059 -4.213,0.224 0,0.613 -0.064,1.571 0.142,1.937 m 1.965,9.956 v 0.08 c 0.416,0.218 0.416,0.152 0.989,-0.245 v -0.085 l -0.185,-0.148 c -0.447,0.084 -0.605,0.216 -0.804,0.398 m 0.152,-0.599 c 0.272,-0.083 0.544,-0.178 0.833,-0.277 -0.017,-0.114 -0.017,-0.247 -0.017,-0.375 -0.073,0.014 -0.149,0.014 -0.225,0.014 -0.407,0.068 -0.711,0.343 -0.591,0.638 m -0.17,1.346 c 0.361,0 0.48,0.089 0.893,-0.225 -0.089,-0.074 -0.155,-0.147 -0.225,-0.216 -0.34,0.142 -0.565,0.291 -0.668,0.441 m -0.019,0.473 -0.159,0.341 c 0.333,0.102 0.596,-0.096 1.007,-0.299 v -0.212 c -0.04,0 -0.082,-0.016 -0.12,-0.028 -0.251,0.07 -0.488,0.143 -0.728,0.198 m -0.227,0.937 c -0.016,0.106 -0.016,0.195 -0.016,0.284 0.311,0.052 0.523,-0.125 0.836,-0.408 -0.098,-0.069 -0.18,-0.158 -0.266,-0.247 -0.193,0.124 -0.374,0.247 -0.554,0.371 m -0.114,0.68 c 0,0.107 0,0.211 0.017,0.3 0.308,-0.089 0.616,-0.178 0.935,-0.269 -0.167,-0.151 -0.449,-0.181 -0.557,-0.197 -0.143,0.061 -0.268,0.123 -0.395,0.166 m -0.081,0.807 c -0.133,0.449 0.504,0.082 0.68,0.012 0,-0.047 0.01,-0.272 -0.078,-0.226 -0.208,0.07 -0.405,0.142 -0.602,0.214 m -0.093,0.778 c 0.191,0.075 0.506,0.341 0.821,0.09 V -0.89 l -0.207,-0.131 c -0.258,0.013 -0.521,0.059 -0.614,0.205 m -0.013,0.922 c 0.185,0 0.368,-0.014 0.555,-0.026 0.044,-0.089 0.091,-0.172 0.138,-0.273 -0.058,-0.05 -0.116,-0.113 -0.174,-0.174 l -0.381,0.075 c -0.044,0.136 -0.091,0.272 -0.138,0.398 m -0.331,0.491 v 0.216 c 0.281,-0.065 0.564,-0.135 0.859,-0.216 -0.123,-0.136 -0.157,-0.185 -0.281,-0.185 -0.201,0.066 -0.388,0.132 -0.578,0.185 m -0.288,0.962 c 0.038,0.055 0.072,0.114 0.107,0.153 0.25,-0.192 0.497,-0.402 0.747,-0.613 -0.054,-0.054 -0.106,-0.114 -0.144,-0.192 h -0.085 c -0.463,0.192 -0.463,0.403 -0.625,0.652 m 0.669,0.154 c -0.203,0.149 -0.406,0.305 -0.594,0.439 l 0.518,0.1 0.297,-0.269 c 0,-0.187 -0.143,-0.255 -0.221,-0.27 m -0.794,0.922 c 0,0.215 0.058,0.181 0.116,0.304 0.256,-0.123 0.512,-0.245 0.768,-0.383 -0.157,-0.168 -0.327,-0.121 -0.484,-0.139 -0.141,0.077 -0.27,0.154 -0.4,0.218 m -0.139,0.611 c -0.02,0.087 -0.04,0.172 -0.04,0.241 0.225,0 0.47,0 0.716,-0.023 0.043,-0.085 0.082,-0.174 0.122,-0.287 -0.04,0 -0.079,0 -0.122,-0.021 -0.226,0.045 -0.451,0.067 -0.676,0.09 m -0.222,0.705 c 0.297,0.102 0.526,0.182 0.883,-0.06 -0.132,-0.143 -0.208,-0.161 -0.32,-0.185 z m -0.063,0.776 c 0.232,0.248 0.528,-0.016 0.856,-0.246 -0.051,-0.053 -0.099,-0.107 -0.147,-0.178 -0.149,0.017 -0.296,0.017 -0.429,0.017 -0.102,0.143 -0.198,0.285 -0.28,0.407 m 0.539,2.367 c 0.349,-0.484 0.822,-2.268 1.305,-2.561 0.142,-1.547 1.195,-2.824 1.635,-4.428 -0.352,-0.199 -1.021,-0.826 -1.252,-0.873 -0.362,0.39 -1.591,6.929 -1.688,7.862 m 3.148,-9.42 c 0,-0.402 -0.384,-0.557 -0.682,-0.791 0,-0.366 -0.053,-0.792 -0.153,-1.23 -0.032,0 -0.055,-0.01 -0.076,-0.022 -0.034,0.012 -0.068,0.022 -0.089,0.036 -0.032,0.562 -0.43,2.073 -0.1,2.43 0.407,-0.069 0.648,-0.129 1.1,-0.423 m -0.966,0.92 c -0.013,0.095 -0.021,0.189 -0.021,0.272 0.79,-0.071 1.271,-0.52 1.963,-1.109 -0.044,-0.048 -0.089,-0.097 -0.155,-0.097 -0.603,0.318 -1.194,0.626 -1.787,0.934 m 0.19,-5.566 c -0.027,-0.074 -0.169,-0.18 -0.253,-0.213 -0.543,0.077 -0.474,0.213 -0.698,0.588 0.404,-0.031 0.504,-0.014 0.951,-0.375 m -0.324,-0.538 c 0.1,-0.081 0.21,-0.166 0.32,-0.248 -0.044,-0.071 -0.087,-0.141 -0.131,-0.224 h -0.418 c -0.076,0.093 -0.141,0.189 -0.207,0.272 0.142,0.07 0.286,0.143 0.436,0.2 m 0.485,-0.978 c 0,-0.073 -0.165,-0.393 -0.22,-0.368 -0.341,0.143 -0.404,0.295 -0.548,0.485 0.319,0.047 0.383,0.083 0.768,-0.117 m 0.142,-0.733 c -0.01,-0.023 -0.021,-0.047 -0.034,-0.083 h -0.074 c -0.165,0.047 -0.33,0.093 -0.495,0.13 0.199,0.129 0.341,0.189 0.603,-0.047 m 0.045,-0.661 c -0.024,-0.094 -0.089,-0.343 -0.153,-0.308 -0.188,0.073 -0.375,0.129 -0.55,0.189 -0.011,0.072 -0.011,0.142 -0.011,0.214 0.142,0.154 0.517,0.189 0.714,-0.095 m -0.648,-0.519 c 0.089,0 0.165,0.035 0.351,-0.12 v -0.059 c -0.089,-0.059 -0.173,-0.08 -0.241,-0.08 -0.045,0.011 -0.087,0.021 -0.121,0.021 0,0.083 0,0.168 0.011,0.238 m 1.897,-0.78 c -0.12,-0.176 -2.184,-1.487 -2.204,-1.475 -0.166,0.272 -0.331,0.543 -0.483,0.802 0.79,0.472 1.756,1.383 2.687,0.673 m -2.687,-1.157 c 0.01,-0.084 0.023,-0.165 0.044,-0.249 -0.242,-0.329 -0.242,-0.329 -0.262,-0.318 -0.132,0.072 -0.266,0.129 -0.397,0.189 0.045,0.508 0.121,0.484 0.615,0.378 m 1.669,-0.471 c 0.307,-0.415 0.449,-0.674 0.68,-1.287 -0.735,-0.225 -1.329,-0.273 -2.032,-0.283 -0.625,0.023 -1.205,0.104 -1.709,0.223 l 0.032,5.111 c -0.1,2.008 -1.305,14.096 -0.778,14.664 0.121,-0.272 0.767,0.023 0.887,-0.38 -0.031,-0.047 -0.065,-0.093 -0.099,-0.153 -0.362,0.189 -0.481,0.153 -0.798,0.153 0.197,-2.124 0.953,-4 1.095,-6.291 0.065,-0.566 0.362,-0.779 0.241,-1.558 0.055,-0.083 0.121,-0.164 0.187,-0.249 -0.56,-2.112 2.27,-6.338 0.548,-8.559 -0.286,-0.234 -0.569,-0.471 -0.843,-0.706 0,-0.354 0,-0.709 0.009,-1.064 1.427,-0.53 1.197,0.189 2.58,0.379 m -3.371,21.594 c -0.039,0.036 -0.258,-0.058 -0.292,-0.077 -0.106,0.04 -0.413,0.185 -0.496,0.222 0.083,0.093 0.371,0.251 0.788,-0.145 m -0.436,0.623 c -0.072,0.039 -0.341,0.137 -0.341,0.211 0.241,0.213 0.176,0.237 0.494,-0.045 -0.032,-0.06 -0.108,-0.154 -0.153,-0.166 M -26.67,0.633 c 0.224,0.242 0.657,0.067 0.925,-0.225 -0.043,-0.063 -0.075,-0.144 -0.104,-0.224 h -0.375 c -0.147,0.128 -0.297,0.24 -0.446,0.353 z m 0.796,-1.117 c 0,-0.017 0,-0.032 0.015,-0.05 -0.078,-0.05 -0.153,-0.115 -0.216,-0.184 l -0.654,0.402 c -0.015,0.135 -0.015,0.135 0.033,0.217 0.264,-0.118 0.543,-0.252 0.822,-0.385 m 0.061,1.191 c -0.472,0.249 -0.745,0.495 -0.459,0.873 0.108,-0.07 0.964,-0.519 0.459,-0.873 m -0.803,1.572 c 0.264,0.284 0.717,-0.111 1.069,-0.395 -0.017,-0.058 -0.034,-0.114 -0.034,-0.185 -0.071,0 -0.142,-0.022 -0.21,-0.039 -0.456,0.093 -0.615,0.411 -0.825,0.619 m 0.508,0.953 c 0.211,-0.224 1.112,-1.347 0.447,-0.992 -0.144,0.102 -1.041,0.992 -0.447,0.992 m 0.401,-0.137 c -0.274,0.423 -0.262,0.456 -0.23,0.809 0.214,-0.139 0.504,-0.405 0.504,-0.845 -0.094,0.017 -0.192,0.036 -0.274,0.036 m -0.334,1.226 c 0.063,0.075 0.133,0.15 0.204,0.205 0.207,-0.15 0.414,-0.297 0.639,-0.466 0,-0.039 -0.101,-0.261 -0.154,-0.276 -0.241,0.184 -0.469,0.369 -0.689,0.537 m 0.072,0.808 c 0.047,0.106 0.098,0.196 0.164,0.282 0.212,-0.105 0.427,-0.209 0.655,-0.315 0.016,-0.087 -0.066,-0.531 -0.102,-0.509 -0.246,0.193 -0.49,0.367 -0.717,0.542 m 0.98,-0.894 c 0.172,-0.345 0.263,-0.87 0,-1.156 -0.012,0.014 -0.023,0.024 -0.023,0.036 -0.019,0.075 -0.316,1.12 0.023,1.12 m 0.691,-1.768 c 0.483,-0.072 0.921,-0.12 1.481,-0.366 -0.011,-0.084 -0.011,-0.167 -0.011,-0.249 -0.286,-0.023 -0.57,-0.058 -0.845,-0.093 -0.231,0.024 -0.46,0.046 -0.691,0.059 -0.199,0.378 -0.078,0.388 0.066,0.649 m 1.568,-1.416 c 0.088,-3.779 0.406,-7.626 0.273,-11.466 -0.053,-0.115 -0.108,-0.234 -0.153,-0.352 -0.481,-0.165 -1.084,-0.082 -1.536,-0.106 -0.252,0.07 -0.493,0.14 -0.734,0.199 0.12,3.966 0.252,7.934 0.383,11.901 0.65,0.023 1.01,0.047 1.767,-0.176 m 0.811,7.275 c -0.018,-0.108 -0.036,-0.212 -0.036,-0.32 -0.056,0 -0.116,0 -0.175,-0.012 -0.227,0.12 -0.456,0.236 -0.672,0.354 0.06,0.06 0.115,0.119 0.193,0.178 0.418,0 0.591,-0.164 0.69,-0.2 m 0.107,-0.88 c -0.078,-0.09 -0.404,-0.136 -0.532,-0.136 -0.05,0.072 -0.314,0.124 -0.349,0.178 0.097,0.067 0.549,0.209 0.728,0.209 z m -0.675,-0.672 c 0.066,0.035 0.132,0.071 0.206,0.095 0.133,-0.118 0.275,-0.236 0.417,-0.365 -0.053,-0.047 -0.108,-0.107 -0.163,-0.167 -0.286,0.036 -0.538,0.167 -0.46,0.437 m 0.8,-0.872 c -0.021,-0.14 -0.305,-0.261 -0.352,-0.261 -0.152,0.093 -0.305,0.191 -0.44,0.261 0.067,0.116 0.135,0.211 0.22,0.307 0.178,-0.096 0.377,-0.191 0.572,-0.307 m -3.172,-18.003 c -0.208,0.188 -0.195,0.2 -0.174,0.341 0.515,0.154 2.457,0.615 2.599,-0.189 -0.801,-0.022 -1.743,-0.152 -2.425,-0.152 m -0.803,20.07 c 0.081,0 0.388,-0.289 0.551,-0.429 0,-0.115 0,-0.227 0.014,-0.356 -0.037,0.015 -0.073,0.015 -0.096,0.015 -0.21,0 -0.458,0.731 -0.469,0.77 m 0.036,0.644 c 0.188,0.202 0.245,0.076 0.587,-0.087 l 0.069,-0.544 c -0.023,0 -0.035,-0.013 -0.046,-0.027 -0.574,0.583 -0.574,0.583 -0.61,0.658 m 0.846,0.38 c -0.048,0 -0.095,0 -0.143,-0.013 -0.188,0.177 -0.374,0.354 -0.551,0.53 0,0.304 0.639,-0.049 0.694,-0.517 m -0.605,2.504 h -0.065 c -0.021,0.012 -0.045,0.024 -0.056,0.024 0.035,0.095 0.068,0.189 0.111,0.283 0.154,-0.012 0.131,-0.128 0.01,-0.307 m 0.111,-1.113 c 0.047,0.037 0.093,0.073 0.154,0.111 0.15,-0.15 0.256,-0.289 0.551,-0.441 -0.036,-0.064 -0.071,-0.126 -0.095,-0.188 h -0.082 c -0.304,0.224 -0.399,0.326 -0.528,0.518 m 0.12,0.784 h 0.307 c 0.145,-0.178 0.449,-0.354 0.208,-0.617 -0.394,0.213 -0.383,0.332 -0.515,0.617 m 0.998,1.628 c 0.265,0.095 0.373,0.165 0.748,0.142 0.46,-2.115 0.809,-7.449 0.271,-10.154 -0.24,0 -0.47,0 -0.701,-0.01 -0.166,0.071 -0.329,0.14 -0.494,0.2 -0.536,2.894 0.011,6.917 0.176,9.822 m 1.273,-2.019 c 0.121,-0.13 0.407,-0.545 0.108,-0.696 -0.097,0.319 -0.261,0.531 -0.108,0.696 m 0.268,0.142 c 0.163,-0.083 0.343,-0.164 0.523,-0.246 -0.015,-0.079 -0.015,-0.162 -0.015,-0.258 -0.057,0 -0.119,0 -0.165,-0.014 -0.171,0.036 -0.555,0.292 -0.343,0.518 m 1.018,-0.964 c -0.08,-0.07 -0.141,-0.156 -0.209,-0.242 -0.205,0.138 -0.395,0.259 -0.585,0.375 0.208,0.105 0.698,0.168 0.794,-0.133 m 0.531,-0.749 c -0.14,-0.108 -0.14,-0.108 -0.337,-0.163 -0.548,0.145 -1.18,0.209 -0.478,0.458 0.332,-0.127 0.539,-0.19 0.815,-0.295 m 0.104,-0.495 c -0.122,-0.106 -0.243,-0.247 -0.353,-0.247 -0.295,0.07 -0.34,0.176 -0.439,0.319 0.329,0.093 0.473,0.27 0.792,-0.072 M -20.7,8.01 c -0.015,-0.032 -0.015,-0.08 -0.015,-0.13 l -0.461,-0.149 c -0.679,0.114 -0.619,0.266 -0.217,0.58 0.202,-0.101 0.309,-0.216 0.693,-0.301 m 0.302,-0.835 c 0.041,-0.057 -0.203,-0.054 -0.288,-0.054 -0.324,0.046 -0.636,0.356 -0.747,0.207 0.306,0.411 0.759,0.233 1.035,-0.153 m 0.297,-0.494 c -0.015,-0.107 -0.031,-0.232 -0.031,-0.354 -0.069,0 -0.141,0 -0.212,-0.016 -0.415,0.062 -0.518,-0.035 -0.717,0.146 0.083,0.171 0.186,0.324 0.285,0.479 0.212,-0.169 0.445,-0.083 0.675,-0.255 m 0.217,-0.847 V 5.706 c -0.17,-0.187 -0.397,-0.132 -0.603,-0.109 l -0.207,0.445 c 0.24,0.09 0.533,-0.04 0.81,-0.208 m 0.314,-0.848 -0.862,0.017 -0.115,0.121 c 0.436,0.261 0.507,0.291 0.977,-0.138 m 0.274,-0.512 c -0.115,-0.125 -0.486,-0.125 -0.567,-0.125 l -0.434,0.211 c 0.013,0.087 0.031,0.156 0.047,0.227 0.306,-0.106 0.627,-0.21 0.954,-0.313 m 0.146,-0.689 c -0.032,-0.034 -0.066,-0.088 -0.098,-0.14 h -0.145 c -0.132,0.088 -0.262,0.178 -0.378,0.265 0.129,0.212 0.441,0.283 0.621,-0.125 m 0.347,-0.729 -0.131,-0.107 c -0.318,0.037 -0.405,0.119 -0.536,0.26 0.074,0.095 0.197,0.319 0.317,0.319 0.077,-0.082 0.273,-0.224 0.35,-0.472 m 0.373,-0.565 c -0.05,-0.054 -0.101,-0.125 -0.132,-0.195 h -0.114 c -0.262,0.105 -0.504,0.195 -0.75,0.28 0.195,0.211 0.637,0.087 0.996,-0.085 m 0.297,-0.497 c 0,-0.043 0,-0.088 0.015,-0.131 -0.079,-0.086 -0.163,-0.204 -0.283,-0.204 -0.329,0.043 -0.479,0.057 -0.56,0.247 0.26,0.088 0.449,0.265 0.828,0.088 m 0.107,-0.763 C -18.16,1.197 -18.29,1.16 -18.421,1.107 c -0.215,0.142 -0.495,0.264 -0.428,0.426 0.476,0 0.517,0.091 0.823,-0.302 m 0.296,-0.439 0.046,-0.158 h -0.9 c 0,0.054 0.019,0.107 0.034,0.138 0.273,0.02 0.546,0.02 0.82,0.02 m 0.383,-0.717 C -17.37,0 -17.37,0 -17.649,-0.126 c -0.166,0.097 -0.329,0.201 -0.468,0.277 0.09,0.072 0.184,0.146 0.279,0.198 0.162,-0.074 0.324,-0.18 0.491,-0.274 m 1.946,-5.826 c -0.163,-0.072 -0.331,-0.141 -0.483,-0.226 -1.021,0.249 -1.218,0.333 -1.756,1.265 0.131,0.308 0.265,0.613 0.407,0.912 0.065,0.01 0.142,0.01 0.218,0.01 -0.021,-0.897 -0.295,-1.086 0.616,-1.476 0.021,0.285 -0.152,0.415 -0.231,0.494 0.056,0.379 0.307,0.649 0.481,0.922 -0.449,0.343 -0.58,0.591 -1.019,0.838 -0.462,-0.022 -1.413,-0.402 -1.699,-0.247 -0.013,0.071 -0.013,0.142 -0.013,0.201 0.702,0.567 1.219,0.494 2.119,0.554 -0.449,1.098 -1.438,1.309 -2.326,1.772 -0.011,0.058 -0.011,0.058 0.042,0.188 2.678,-0.72 3.379,-2.23 3.644,-5.207 m -3.203,2.008 c 0.076,0 0.132,-0.037 0.273,-0.118 -0.241,-0.262 -0.372,-0.543 -0.549,-0.862 -0.031,0 -0.065,0 -0.099,-0.013 h -0.066 c 0.111,0.389 0.255,0.697 0.441,0.993 m 0.943,0.2 c 0.01,0 0.021,0 0.044,-0.011 0,-0.38 -0.197,-0.993 -0.548,-1.228 -0.056,0.046 -0.111,0.095 -0.155,0.141 z m 2.435,-2.763 c -0.45,-0.354 -0.8,-0.508 -1.173,-0.707 0.25,-0.424 0.504,-0.861 0.767,-1.3 -0.044,-0.058 -0.087,-0.116 -0.12,-0.189 -0.878,0.023 -1.263,-0.151 -1.92,-0.248 0,-0.316 -0.625,-0.719 -0.9,-0.803 0,1.584 -0.439,2.978 -0.669,4.405 0.845,0.909 2.215,-0.839 2.863,-1.5 0.407,0.176 0.67,0.259 1.152,0.342 m 0.517,-6.326 h -0.1 c -1.35,0.27 -1.514,0.862 -2.259,1.937 l -1.174,0.035 c -0.012,0.021 -0.021,0.036 -0.034,0.046 1.822,0.837 0.704,-0.214 2.151,-0.119 -0.198,0.262 -0.394,0.508 -0.581,0.757 -0.57,-0.048 -1.142,-0.096 -1.701,-0.154 -0.055,0.058 -0.11,0.106 -0.165,0.154 0.834,0.258 1.131,0.402 2.161,0.402 l 0.362,-0.462 c 0.12,0.012 0.252,0.012 0.383,0.012 -0.864,0.827 -0.919,0.813 -1.919,0.945 v 0.117 c 0.309,0.249 1.218,0.131 1.722,0.131 0.713,-1.441 1.385,-2.007 1.154,-3.801 m 6.34,-5.573 c -0.034,0.012 -0.053,0.012 -0.076,0.012 -0.932,0.32 -1.384,0.649 -2.064,1.203 2.14,1.31 1.921,1.713 2.436,-0.529 -0.315,-0.225 -0.296,-0.288 -0.296,-0.686 m 1.656,-0.813 h -0.086 c -0.594,0.2 -0.946,0.424 -1.329,0.732 0,0.789 2.491,0.753 1.415,-0.732 m -4.529,2.371 c -1.089,0.638 -1.648,1.121 -2.446,1.963 0.93,0.422 1.819,0.305 2.851,0.269 0.142,-0.236 0.877,-1.415 0.756,-1.807 -0.328,-0.095 -0.943,-0.425 -1.161,-0.425 m -3.249,2.646 c -0.132,0.119 -0.381,0.184 -0.373,0.352 0.038,0.753 1.754,0.181 2.598,0.072 -0.899,-0.163 -2.126,-0.424 -2.225,-0.424 m 1.646,2.255 h 0.031 c 0.068,-0.308 -0.097,-0.449 -0.305,-0.746 l -0.099,0.178 c 0.118,0.19 0.241,0.377 0.373,0.568 m -0.801,-0.852 c -0.023,0 -0.034,0 -0.042,-0.01 -0.297,0.435 0.087,0.754 0.283,1.05 0.066,-0.038 0.142,-0.072 0.221,-0.117 0,-0.071 -0.386,-0.747 -0.462,-0.923 m -0.604,-0.282 h -0.065 c -0.043,0.035 -0.089,0.059 -0.132,0.082 0,0.414 0.231,0.79 0.352,1.146 0.042,-0.038 0.087,-0.073 0.142,-0.108 -0.021,-0.413 -0.11,-0.743 -0.297,-1.12 m -1.13,5.313 c 1.175,0.578 1.262,-0.285 2.206,-1.43 0,-0.379 -0.779,-2.325 -0.866,-2.278 -0.407,0.296 -0.21,0.497 -0.1,0.78 -0.427,0.827 -1.24,2.053 -1.24,2.928 m 3.6,1.498 c 0.229,-0.153 0.471,-0.307 0.712,-0.471 0,0 -0.725,-4.971 -1.447,-4.581 -0.472,0.507 1.841,4.227 0.953,4.791 -0.658,-0.589 -1.107,-3.564 -1.669,-4.722 -0.174,0 -0.129,0.048 -0.163,0.083 0.265,1.251 0.604,4.18 1.614,4.9 m 0.996,-0.567 c 0.273,-1.167 0.18,-2.694 0.231,-3.894 -0.284,-0.119 -0.558,-0.237 -0.835,-0.368 l -0.14,0.12 c 0.098,1.131 0.043,3.268 0.744,4.142 m -0.725,1.122 c 0,0.946 0.452,1.475 1.362,1.429 0.397,-0.509 0.471,-0.91 0.549,-1.723 -0.142,-0.074 -0.284,-0.143 -0.415,-0.213 -0.792,0.082 -0.989,0.104 -1.496,0.507 m 1.362,-0.968 c 0.812,-0.437 0.668,-2.196 0.176,-3.032 h -0.042 c -0.276,0.753 -0.221,2.147 -0.265,2.889 z m 0.977,0.908 c 0.843,0 0.152,-1.229 -0.023,-1.64 h -0.132 c -0.042,0.012 -0.087,0.023 -0.131,0.023 -0.076,0.839 -0.032,0.956 0.286,1.617 m 1.94,-1.533 c -0.197,-1.913 -1.819,-5.738 -3.959,-6.057 -0.438,0.059 -0.866,0.117 -1.294,0.165 0,1.901 1.974,1.523 3.04,3.092 0.404,1.205 0.711,2.397 1.239,3.472 0.459,0 0.58,-0.249 0.974,-0.672 m 0.969,-6.79 c -0.956,-0.707 -2.085,-1.687 -3.227,-1.877 -0.197,0.568 -0.428,1.205 -0.561,1.678 0.911,0.59 3.788,3.198 3.788,0.199 m 1.743,0.427 c 0.108,-0.473 0.296,-0.945 0.197,-1.572 -0.625,-0.424 -2.644,-2.194 -3.116,-2.289 -0.308,0.566 -0.515,1.062 -0.735,1.557 0.506,0.319 3.412,2.479 3.654,2.304 m -1.47,-5.134 c -1.229,1.554 0.065,1.793 1.383,2.655 0.097,0 0.195,-0.214 0.294,-0.391 0.198,-1.651 -0.449,-1.641 -1.677,-2.264 m 1.567,0.069 -0.031,-1.23 c -0.045,0.015 -0.079,0.015 -0.111,0.015 -0.646,0.035 -1.042,0.138 -1.567,0.318 -0.087,0.277 1.449,0.953 1.709,0.897 m -10.004,-5.962 c 0.692,0.471 1.414,0.284 2.294,0.471 0.79,0.307 1.535,0.898 2.357,0.366 -1.26,-0.931 -2.084,-1.968 -3.641,-1.968 -0.648,0.244 -0.757,0.612 -1.01,1.131 m -1.942,0.862 c 0.013,0.471 0.032,0.946 0.055,1.416 1.019,0.626 2.162,0.507 3.39,0.566 0.077,0.154 0.164,0.309 0.253,0.45 0.086,0 1.48,-1.416 1.745,-1.676 -1.866,-0.637 -3.008,-1.027 -4.818,-1.099 -0.208,0.118 -0.417,0.237 -0.625,0.343 m -15.919,-0.391 c 0.121,0.344 0.254,0.686 0.385,1.016 2.326,-0.2 4.508,-1.003 6.912,-1.264 0.009,0.768 0.077,1.55 0.187,2.243 1.557,-0.045 7.325,0.508 7.787,-0.483 0.099,-0.424 0.21,-0.897 0.22,-1.415 -0.943,-0.958 -1.58,-1.95 -2.843,-2.173 -0.319,0.209 -1.845,1.31 -1.381,1.711 l 1.381,-0.175 c 0.155,-0.497 -0.042,-0.971 0.202,-1.419 0.326,0.296 0.338,0.944 0.404,1.359 0.46,0.069 0.843,0.105 1.426,0.06 -0.024,0.164 -0.045,0.329 -0.055,0.494 -2.447,0.296 -5.012,1.04 -7.164,-0.202 -3.521,-3.043 -2.568,0.331 -5.682,0.768 -0.593,-0.198 -1.241,-0.52 -1.779,-0.52 m -5.078,1.407 c 0.142,0.636 0.284,1.05 0.538,1.558 1.392,-0.482 2.962,-0.932 4.322,-1.831 0.021,-0.355 0.055,-1.134 -0.221,-1.426 -1.304,0.529 -3.488,1.699 -4.639,1.699 m -2.578,1.026 c 0.583,0 1.46,-0.791 2.03,-1.18 -0.231,-0.308 -0.977,-0.684 -1.284,-0.792 -0.78,0.521 -0.691,1.11 -0.746,1.972 m -0.495,2.621 c 0.264,0 2.688,-1.356 3.063,-1.759 -0.1,-0.259 -0.659,-1.334 -0.693,-1.322 -1.008,0.779 -3.093,1.629 -2.37,3.081 m -0.549,2.49 c 0.044,0.048 0.089,0.084 0.131,0.119 0.748,-0.697 1.297,-1.087 2.273,-1.593 -0.11,-0.402 -0.22,-0.804 -0.328,-1.217 -0.023,0 -0.034,0 -0.045,-0.01 -1.482,0.789 -1.974,1.048 -2.031,2.701 m -0.371,2.6 c 0.843,-0.759 3.466,-1.997 3.883,-2.894 -0.328,-0.413 -0.35,-0.472 -0.767,-0.532 -0.921,0.436 -4.058,2.256 -3.116,3.426 m 0.185,13.09 c -0.011,-0.992 -0.011,-0.992 -0.032,-0.98 -0.428,0.26 -0.888,0.627 -0.888,1.109 0.449,0.236 0.284,0.214 0.92,-0.129 m 1.338,0.662 c -0.796,0.365 0.288,1.129 0.528,1.002 -0.098,-0.318 -0.263,-0.721 -0.528,-1.002 m 1.68,0.139 c -0.142,-1.214 -0.669,-2.1 -1.241,-3.246 l 0.252,-0.035 c 0.099,-0.424 1.307,-4.851 1.01,-5.489 -0.656,0.282 -1.019,0.673 -1.588,0.721 0,-1.474 2.412,-1.688 2.906,-2.753 -0.339,-0.459 -0.79,-1.308 -1.307,-1.486 -3.652,1.96 -3.303,2.313 -2.752,6.114 0.36,0.297 0.536,0.283 1.053,0.367 0.142,-0.283 0.286,-0.565 0.438,-0.862 0.011,0 0.024,0 0.045,-0.011 0.328,0.353 -0.21,1.027 -0.32,1.298 -1.612,0.178 -2.434,1.004 -3.652,1.925 -0.01,0.07 -0.023,0.13 -0.023,0.189 l -0.987,0.176 c 0,0.095 0,0.179 0.012,0.259 0.591,-0.164 1.195,-0.328 1.799,-0.494 0,-0.06 0.01,-0.119 0.021,-0.189 0.21,-0.047 1.076,-0.402 1.373,-0.331 -1.297,1.677 -4.51,1.995 -3.392,4.416 0.418,0.189 0.362,-0.496 0.572,-0.839 0.184,0.202 0.382,0.4 0.581,0.59 0.11,-0.059 0.22,-0.13 0.328,-0.199 0.011,-0.179 0.023,-0.355 0.044,-0.531 -0.065,-0.038 -0.131,-0.072 -0.196,-0.121 v -0.235 c 0.79,0 0.779,0.708 1.097,-0.532 0.328,-0.614 0.955,-0.966 1.612,-1.392 0.296,0.106 -0.153,2.042 -0.208,2.242 -0.33,0.166 -0.659,0.32 -0.976,0.474 0,0.154 0.209,0.294 0.296,0.4 0.691,-0.212 1.129,-1.013 1.754,-1.652 0.625,0.176 0.901,0.755 1.307,1.276 0.043,-0.014 0.087,-0.024 0.142,-0.05 m 0.11,-5.534 h -0.078 c -0.066,0.035 -0.131,0.069 -0.187,0.104 0.022,0.296 0.134,0.46 0.276,0.674 h 0.176 c 0,-0.259 0.01,-0.483 -0.187,-0.778 m 0.405,2.196 c 0,-0.178 -0.383,-1.158 -0.591,-0.934 -0.538,0.578 -0.331,2.137 0.176,2.681 0.273,-0.355 1.215,-1.371 0.415,-1.747 M -38.23,7.282 c 0.241,0.26 0.832,1.052 1.118,1.147 0.055,-0.05 0.11,-0.095 0.166,-0.154 -0.134,-0.131 -1.043,-1.111 -1.153,-1.111 -0.044,0.048 -0.089,0.084 -0.131,0.118 m 0.604,1.57 c -0.286,-0.59 -0.528,-1.003 -1.131,-1.285 0,0.519 0.537,1.427 1.131,1.285 m 1.281,0.91 c -0.559,0.141 -0.887,2.232 -0.974,2.681 0.042,0.056 0.087,0.115 0.131,0.164 0.525,-0.427 0.987,-2.195 0.843,-2.845 M -36.65,4.838 c -0.254,0.058 -0.495,0.118 -0.737,0.168 -0.263,0.553 -0.58,1.261 -0.58,1.759 0.021,0.02 1.152,1.072 1.152,0.613 -0.483,-0.473 -0.703,-1.23 -0.199,-1.96 0.099,0.071 0.199,0.141 0.309,0.201 -0.034,0.743 0.108,1.204 0.263,1.829 0,0.85 -0.746,1.404 -1.011,2.066 0.055,0.045 0.111,0.082 0.166,0.12 0.47,-0.168 1.355,-1.466 1.459,-1.466 0.044,0.059 0.087,0.118 0.142,0.166 -0.362,1.285 -0.58,2.385 -0.725,3.564 l 0.132,0.177 h 0.055 c 0.987,-1.911 0.979,-5.406 -0.426,-7.237 m 3.453,-8.664 -0.131,-0.886 c -0.481,0.248 -0.954,0.494 -1.426,0.733 -0.011,-0.012 0.176,-0.468 0.186,-0.532 0.452,-0.768 2.47,-1.63 3.413,-1.262 0.231,-0.166 0.417,-0.487 0.659,-0.828 0.066,0.061 0.142,0.106 0.218,0.155 0.449,-0.615 0.045,-4.747 0.879,-6.54 0.187,0 0.426,0.106 0.646,0.177 -0.472,2.185 -0.735,2.016 0.824,2.986 0.46,-0.414 -0.121,-2.243 -0.265,-2.986 0.066,-0.024 0.1,-0.024 0.132,-0.166 0.055,0 0.123,0 0.186,-0.011 0.076,0.141 0.165,0.283 0.254,0.414 0.077,-0.015 0.077,-0.015 0.494,-0.249 l 0.032,-0.568 c 0.506,0.333 0.648,3.706 0.582,4.192 -0.21,0.094 -0.417,0.187 -0.614,0.271 0.01,0.14 0.032,0.273 0.055,0.403 0.208,0 0.339,-0.227 0.525,-0.51 0.066,0.023 0.142,0.048 0.221,0.061 0.449,1.296 0.207,3.069 0.428,4.354 0.404,0.439 0.57,0.722 0.787,1.23 0.013,0 0.024,-0.013 0.045,-0.026 -0.297,-3.351 -0.394,-6.823 -0.549,-10.245 h 0.538 l 0.166,1.098 c 0.745,0 1.514,-0.011 2.336,-0.142 l 0.034,-1.333 c -0.057,0.009 -0.11,0.009 -0.165,0.009 -3.61,0.18 -7.899,0.403 -10.939,2.505 0,1.829 1.174,3.492 0.803,5.535 -0.123,0.01 -0.242,0.01 -0.354,0.01 -0.174,-1.012 -0.523,-4.544 -0.919,-5.262 -0.153,0.035 -0.297,0.07 -0.439,0.105 -0.133,1.524 0.076,3.071 -0.178,4.44 -0.964,2.007 -1.94,4.06 -2.773,5.996 -0.165,1.263 -0.154,2.481 -0.12,3.662 0.317,0.164 0.339,0.293 0.766,0.199 0.132,-0.259 0.284,-0.507 0.428,-0.91 0.462,-3.234 0.625,-3.931 3.235,-6.079 m 0.868,8.713 c -2.491,-1.772 -2.491,-1.699 -1.787,-4.64 0.877,-0.992 1.074,-0.958 0.756,-2.443 -0.341,-0.107 -0.648,-0.26 -0.922,-0.321 -0.186,0.142 -0.362,0.284 -0.538,0.426 -0.086,0.91 -0.459,1.547 -0.788,2.28 -0.044,0.01 -0.078,0.022 -0.112,0.022 -0.04,0.85 -0.108,1.583 -0.218,2.302 0.811,0.78 3.04,2.136 2.841,3.305 0.33,0.355 0.942,-0.353 0.768,-0.931 m 2.61,-5.668 c -0.373,-0.377 -0.953,-0.908 -1.523,-0.755 -0.462,0.319 -0.462,0.319 -0.506,0.319 0.328,-0.579 0.955,-1.438 -0.186,-1.628 -0.888,0.258 -0.538,1.534 -0.856,2.113 -2.951,4.404 0.275,6.48 3.226,3.103 -0.231,-0.508 -1.295,-0.662 -1.426,-0.885 0.252,-0.165 0.504,-0.34 0.757,-0.519 0,-0.103 -0.655,-0.951 -0.757,-1.076 0.649,-0.309 0.293,0.562 1.042,0.32 -0.436,-0.857 0.229,-0.492 0.229,-0.992 m 0.32,-1.723 c -0.11,0.154 -0.22,0.308 -0.33,0.447 0.3,0.76 0.616,-0.546 0.33,-0.447 m 0.129,1.452 c 0.155,-0.035 0.254,-0.035 0.407,-0.319 -0.042,-0.058 -0.087,-0.13 -0.129,-0.2 h -0.144 c -0.076,0.082 -0.153,0.153 -0.218,0.223 0.021,0.108 0.052,0.203 0.084,0.296 m 0.233,0.827 c 0.087,-0.059 0.581,-0.331 0.373,-0.663 -0.309,0.238 -0.517,0.344 -0.373,0.663 m 0.077,0.731 c 0.228,-0.082 0.36,-0.177 0.569,-0.521 -0.033,-0.044 -0.086,-0.104 -0.131,-0.104 -0.22,0.213 -0.515,0.424 -0.438,0.625 m 0.379,0.892 c 0.182,-0.07 0.262,-0.07 0.353,-0.462 -0.144,-0.213 -0.144,-0.213 -0.171,-0.201 -0.117,0.1 -0.233,0.184 -0.351,0.271 0,0.322 0.012,0.223 0.169,0.392 m 0.093,0.689 0.58,-0.417 c 0,-0.015 -0.013,-0.222 -0.052,-0.18 -0.232,0.096 -0.451,0.194 -0.67,0.292 -0.012,0.055 -0.012,0.111 -0.012,0.165 0.052,0.054 0.102,0.099 0.154,0.14 m 0.506,0.071 -0.495,0.618 c 0.439,0.796 0.606,-0.737 0.495,-0.618 m -0.258,1.528 c 0.116,0.02 0.246,0.037 0.379,0.037 0.063,-0.069 0.653,-0.581 0.195,-0.827 -0.508,0.316 -0.426,0.441 -0.574,0.79 m 0.292,0.426 c 0.045,0.11 0.09,0.219 0.149,0.313 0.129,0 0.635,-0.376 0.361,-0.67 -0.174,0.123 -0.35,0.249 -0.51,0.357 m 0.67,0.229 c -0.193,0.161 -0.386,0.304 -0.582,0.451 0.761,0.993 1.017,-0.309 0.582,-0.451 m -0.126,1.607 c 0.09,-0.011 0.174,-0.024 0.276,-0.046 0.055,-0.119 0,-0.638 -0.133,-0.496 -0.132,0.188 -0.229,0.318 -0.253,0.401 0.037,0.046 0.068,0.095 0.11,0.141 m 0.276,0.919 c 0.148,-0.185 0.481,-0.488 0.481,-0.877 -0.051,0 -0.092,-0.015 -0.134,-0.028 -0.279,0.071 -0.455,0.302 -0.6,0.447 0.065,0.158 0.132,0.317 0.199,0.458 z m 0.175,0.592 c 0.137,-0.066 0.271,-0.149 0.408,-0.23 0,-0.063 0,-0.13 0.014,-0.192 -0.029,0.015 -0.061,0.015 -0.09,0.015 C -27,7.264 -27,7.264 -27.058,7.344 c 0.029,0.049 0.058,0.083 0.105,0.115 m -0.023,3.411 c 0.1,-0.106 0.197,-0.211 0.297,-0.33 -0.023,-0.14 -0.034,-0.283 -0.045,-0.437 -0.055,0 -0.107,0 -0.152,-0.011 -0.32,0 -0.22,0.52 -0.231,0.662 0.043,0.046 0.087,0.082 0.131,0.116 m 0.593,0.013 c -0.275,0.249 -0.309,0.307 -0.372,0.554 0.021,0.036 0.053,0.072 0.087,0.106 0.11,-0.011 0.22,-0.034 0.341,-0.057 0,-0.118 0.01,-0.637 -0.056,-0.603 m 0.155,-0.78 c 0.153,0.333 0.174,0.273 0.492,-0.022 0,-0.06 0,-0.06 -0.098,-0.225 h -0.053 c -0.123,0.082 -0.233,0.165 -0.341,0.247 m 0.305,1.573 c -0.099,0.152 -0.186,0.305 -0.273,0.459 0.263,0.721 0.515,-0.331 0.273,-0.459 m 0.396,-1.064 c -0.11,-0.072 -0.11,-0.072 -0.12,-0.047 -0.263,0.329 -0.21,0.284 -0.089,0.589 0.065,0 0.241,-0.331 0.209,-0.542 m -0.065,2.244 c 0.033,-0.095 0.097,-0.225 0.131,-0.428 -0.034,-0.01 -0.057,-0.021 -0.078,-0.044 -0.197,0.209 -0.108,0.341 -0.053,0.472 m -1.515,1.403 c 0.415,0.555 1.47,0.944 1.974,0.132 -1.756,-0.143 -1.756,-0.143 -1.974,-0.132 m -3.828,-0.26 c 0.339,0.213 2.369,0.637 2.621,0.223 -0.877,-0.186 -1.699,-0.352 -2.51,-0.423 -0.045,0.071 -0.079,0.141 -0.111,0.2 m -0.286,0.946 c 0.274,0.387 2.172,0.636 2.754,0.694 l 0.318,-0.342 c -0.987,-0.459 -2.008,-0.436 -2.961,-0.494 -0.045,0.047 -0.077,0.095 -0.111,0.142 m 3.159,1.453 c -0.042,-0.085 -0.087,-0.169 -0.132,-0.264 L -28.973,16.1 c -0.019,-0.035 -0.032,-0.07 -0.043,-0.105 -0.514,0.177 -0.889,-0.273 -1.37,-0.273 -0.714,0.038 -0.714,0.038 -0.824,0.073 0.229,0.588 2.512,1.026 3.148,0.603 m 0.406,-0.392 c 0.242,-0.164 0.484,-0.33 0.736,-0.507 v -0.261 c -0.252,-0.189 -0.494,-0.377 -0.736,-0.578 l -0.165,0.107 c -0.01,0.389 -0.131,1.028 0.165,1.239 m 2.468,0.377 c -0.241,-0.175 -1.063,-0.648 -1.118,-0.623 -0.396,0.223 -0.79,0.448 -1.171,0.659 0.194,0.213 1.851,0.073 2.289,0.073 z m 0.759,-0.283 c 0,-0.176 -0.034,-1.12 -0.199,-0.944 -0.252,0.107 -0.505,0.201 -0.757,0.296 -0.01,0.084 -0.021,0.165 -0.021,0.235 0.263,0.19 0.526,0.378 0.788,0.557 0.055,-0.05 0.121,-0.095 0.189,-0.144 m 1.326,1.594 c -0.229,-0.094 -0.46,-0.189 -0.68,-0.284 -1.197,0.214 -1.329,1.549 -0.318,1.996 0,0.4 0,0.804 0.011,1.205 -0.549,0 -1.098,0 -1.646,-0.013 -0.615,-1.534 -3.324,0.946 -0.702,1.498 0.494,-0.21 0.528,-0.104 0.757,-0.705 0.527,0 1.053,0 1.591,-0.012 -0.011,0.469 -0.021,0.943 -0.021,1.415 -2.327,0.932 2.294,3.401 1.107,0.12 L -23.3,22.771 c -0.013,-0.461 -0.013,-0.923 -0.013,-1.392 0.441,0.012 0.892,0.012 1.341,0.012 0.263,0.85 0.915,0.739 1.591,0.448 0.614,-1.665 -0.966,-2.313 -1.536,-1.241 -0.472,0.013 -0.934,0.013 -1.396,0.013 0,-0.412 0,-0.84 0.013,-1.263 0.68,-0.284 0.394,-1.087 0.197,-1.654 m -0.295,-1.629 c 0.043,-0.07 0.085,-0.153 0.13,-0.235 -0.087,-0.095 -0.208,-0.225 -0.295,-0.225 -0.89,0.071 -0.548,0.509 0.165,0.46 m 0.077,-1.322 -0.659,-0.177 c -0.045,0.07 -0.076,0.131 -0.11,0.189 0.086,0.048 0.911,0.448 0.769,-0.012 m -0.265,1.841 c -0.142,0.061 -0.273,0.107 -0.407,0.155 -0.123,0.806 1.009,0.167 0.407,-0.155 m 0.987,-2.561 c 0,-0.236 -0.011,-0.295 -0.176,-0.554 -0.733,0 -1.457,0 -2.182,-0.014 -0.076,0.308 -0.044,0.332 0.045,0.533 0.536,0.048 1.809,0.307 2.313,0.035 m 0,-1.252 c -0.098,0.025 -0.187,0.036 -0.273,0.048 0.034,0.082 0.065,0.154 0.11,0.223 0.11,-0.046 0.252,-0.317 0.163,-0.271 m 0.375,-0.76 c -0.37,0.139 -0.602,0.311 -0.544,0.525 0.156,0.045 0.271,-0.018 0.523,-0.14 -0.143,-0.197 0.062,-0.385 0.021,-0.385 m 0.397,-0.417 c -0.035,0 -0.052,-0.019 -0.074,-0.04 -0.198,0.082 -0.375,0.155 -0.557,0.214 0.036,0.058 0.07,0.117 0.108,0.155 0.161,-0.057 0.341,-0.116 0.523,-0.195 z m 0.401,-0.433 c -0.014,-0.047 -0.028,-0.095 -0.028,-0.156 -0.171,-0.016 -0.326,-0.031 -0.486,-0.063 l -0.515,0.37 c 0,0.336 0.952,-0.104 1.029,-0.151 m 0.439,-0.652 -0.051,-0.107 c -0.302,0 -0.605,0 -0.891,-0.016 l -0.12,0.123 c 0.39,0.2 0.455,0.236 1.062,0 m 0.235,-0.491 c -0.124,-0.115 -0.292,-0.247 -0.414,-0.247 -0.109,0.067 -0.213,0.132 -0.305,0.182 0.063,0.115 0.122,0.229 0.196,0.33 0.109,0 0.293,-0.114 0.523,-0.265 m 0.447,-0.598 c -0.165,-0.119 -0.265,-0.226 -0.438,-0.226 -0.176,0 -0.231,0.226 -0.242,0.261 0.252,0.129 0.308,0.248 0.659,0.154 0,-0.06 0.01,-0.119 0.021,-0.189 m 0.548,-0.592 c -0.592,-0.33 -0.592,-0.33 -0.647,-0.33 -0.253,0.213 -0.208,0.213 -0.066,0.403 0.231,0 0.462,-0.014 0.693,-0.025 0,-0.011 0.01,-0.024 0.02,-0.048 m 0.324,-0.645 c -0.263,-0.102 -0.689,-0.311 -0.823,-0.311 -0.055,0.105 -0.096,0.209 -0.133,0.293 0.367,0.124 0.538,0.248 0.956,0.018 m 0.394,-0.567 c -0.014,-0.08 -0.024,-0.175 -0.024,-0.268 -0.264,-0.014 -0.526,-0.043 -0.774,-0.067 -0.063,0.081 -0.125,0.147 -0.188,0.214 0.262,0.281 0.549,0.256 0.986,0.121 m 0.388,-0.912 h -0.882 l 0.043,0.24 c 0.269,0.017 0.552,0.033 0.839,0.033 z m 0.306,-0.276 c -0.14,-0.1 -0.14,-0.1 -0.615,-0.271 -0.109,0.069 -0.22,0.136 -0.332,0.188 0.253,0.083 0.521,0.102 0.947,0.083 m 0.069,-1.033 c -0.176,0.094 -0.351,0.188 -0.514,0.284 0,1.41 1.264,-0.676 0.514,-0.284 m 0.686,-0.151 c 0,-0.068 -0.096,-0.571 -0.204,-0.521 -0.264,0.101 -0.405,0.236 -0.498,0.32 0.048,0.082 0.468,0.287 0.702,0.201 m 0.548,-1.127 c -0.154,0.015 -0.308,0.015 -0.451,0.015 -0.108,0.089 -0.208,0.165 -0.305,0.242 0.394,0.237 0.295,0.313 0.727,-0.031 0,-0.076 0.013,-0.153 0.029,-0.226 m 0.357,-0.462 c -0.188,-0.039 -0.373,-0.093 -0.541,-0.146 -0.185,0.074 -0.354,0.13 -0.52,0.181 0.033,0.091 0.082,0.184 0.13,0.253 0.39,0.036 0.457,0.052 0.931,-0.288 m -0.474,-0.851 -0.303,0.319 c 0.922,0.534 1.286,0.108 0.303,-0.319 m 0.979,0.14 c 0,-0.434 -0.606,-0.327 -0.388,-0.297 -0.069,0.017 -0.329,-0.071 -0.388,-0.05 l 0.423,0.396 c 0.146,0 0.19,-0.033 0.353,-0.049 m 0.445,-0.783 c -0.214,-0.108 -0.214,-0.108 -0.328,-0.108 -0.546,0.178 -0.546,0.178 -0.578,0.231 0.146,0.154 1.048,0.392 0.906,-0.123 m 0.367,-0.414 c -0.718,-0.21 -0.718,-0.21 -0.872,-0.21 -0.047,0.049 -0.091,0.097 -0.138,0.13 0.259,0.08 0.629,0.329 0.995,0.264 0,-0.053 0,-0.115 0.015,-0.184 m 0.489,-0.875 c -0.491,0.072 -0.74,0.179 -0.969,0.357 1.04,0.264 0.986,-0.373 0.969,-0.357 m -0.395,-0.427 c -0.039,0.04 -0.077,0.08 -0.102,0.121 0.38,0.137 0.432,0.206 0.925,-0.012 -0.203,-0.219 -0.621,-0.109 -0.823,-0.109 m 0.486,-1.615 c 0.638,0 1.218,0.413 1.922,0.036 -0.109,-0.669 0.237,-1.305 0.042,-2.066 -0.286,0 -0.481,0.224 -0.614,0.331 v 0.083 c 0.22,0.188 0.23,0.199 0.572,0.222 -0.045,0.095 -0.087,0.189 -0.132,0.273 -0.43,0.083 -0.911,0.165 -1.207,-0.012 0.504,-0.496 1.139,-1.666 1.644,-2.433 0.165,0.013 0.33,0.013 0.495,0.013 l -0.33,0.319 0.462,0.495 c 0.044,-0.011 0.12,-0.045 0.241,-0.176 -0.33,-0.804 -0.044,-0.969 -0.811,-1.477 -0.044,-0.425 -0.32,-3.151 -0.714,-2.726 -0.779,0.991 -1.339,2.172 -2.304,0.967 l -0.12,0.13 c 0.306,0.248 0.613,0.497 0.933,0.732 -0.121,0.107 -0.242,0.199 -0.352,0.294 l 0.297,0.214 c -0.395,1.698 -0.506,3.057 -1.537,4.308 -0.32,0.237 -1.667,1.194 -1.744,1.359 0.218,0 0.638,-0.189 0.966,-0.189 -0.659,2.525 -2.446,4.97 -2.853,7.188 1.339,-1.016 2.26,-4.519 3.817,-5.525 -0.01,-0.081 -0.021,-0.164 -0.021,-0.258 0.625,-0.378 0.79,-1.31 1.348,-2.102 m 2.108,-2.561 c -0.066,0.06 -0.134,0.118 -0.186,0.177 0.052,0.188 0.076,0.166 0.294,0.094 0,-0.071 0.011,-0.142 0.024,-0.211 -0.1,-0.05 -0.056,-0.06 -0.132,-0.06 m -1.317,2.974 c -0.175,-0.035 -0.35,-0.084 -0.515,-0.131 -0.045,0.061 -0.089,0.12 -0.132,0.167 0.121,0.082 0.24,0.165 0.373,0.237 0.087,-0.083 0.176,-0.179 0.274,-0.273 m 2.008,3.567 c 2.918,-0.368 2.885,-0.887 2.787,-3.98 -0.165,-1.44 -1.021,-2.196 -2.26,-2.408 l -0.669,0.106 c -0.011,0.213 -0.011,0.414 -0.011,0.613 0.174,0.085 0.349,0.166 0.525,0.239 0,0.529 -0.461,0.393 -0.461,0.563 0.461,0.497 1.141,-0.424 0.989,0.568 h -1.066 c 0,0.572 0.297,0.429 0.231,0.85 -0.549,0.035 -1.087,0.061 -1.624,0.083 0,1.499 0.768,2.206 1.559,3.366 m 5.407,-1.111 c -0.47,-0.683 -0.986,-3.954 -2.281,-3.954 h -0.032 c 0,3.73 0.712,4.945 -2.951,5.443 -0.099,0.151 -0.165,0.305 -0.165,0.374 1.471,0.947 6.001,0.367 7.624,-0.189 C -5.154,2.831 -5.88,2.289 -6.582,1.699 m 2.668,-2.431 c -0.022,0 -0.045,0 -0.066,-0.013 -0.242,0.318 -0.386,0.59 -0.494,0.839 0.011,0.011 0.022,0.011 0.032,0.011 C -4.353,0 -3.807,-0.427 -3.914,-0.732 M -2.61,-2.61 v 0.295 c -0.131,0.072 -0.252,0.143 -0.372,0.202 v 0.141 c 0.154,0.046 0.284,-0.025 0.504,-0.154 -0.098,-0.862 -0.418,-0.932 -1.066,-1.216 -0.042,0.024 -0.084,0.046 -0.131,0.06 0.709,1.664 0.216,0.215 1.065,0.672 m 2.754,1.936 c 0.176,-2.302 -2.766,-2.833 -3.688,-4.629 0.42,0 2.625,1.085 2.746,0.956 -1.066,-0.862 -2.471,-2.218 -3.786,-2.396 -0.165,0.178 -0.33,0.344 -0.494,0.508 -0.351,-0.247 -1.183,-3.009 -1.183,-3.527 l 0.359,0.034 c 0.232,0.813 0.473,1.617 0.714,2.42 0.274,-0.037 0.559,-0.071 0.846,-0.119 0.207,-1.509 -0.045,-3.53 -0.142,-5.195 -0.21,-0.176 -1.208,-1.015 -1.396,-0.92 -0.231,0.413 -0.46,0.826 -0.68,1.24 0.495,0.448 1.033,0.967 1.504,1.474 -0.649,0.698 -3.006,-2.171 -3.665,-1.461 0.856,1.982 2.394,6.597 3.764,8.439 -0.209,1.157 -1.788,2.432 -1.459,3.069 0.569,-0.306 1.688,-1.38 2.292,-1.345 0.309,0.648 0.517,1.192 1.131,1.522 0.108,-0.059 0.218,-0.117 0.339,-0.188 l 0.068,-0.591 c -1.011,-0.52 -1.318,-1.181 -1.604,-2.407 1.263,-0.815 2.14,2.112 2.305,2.112 0.176,-0.153 0.207,-0.212 0.536,-0.13 0.144,0.568 -0.229,0.686 0.144,1.087 l 0.351,-0.071 c 0,-0.165 0,-0.342 0.009,-0.519 0.341,0.236 0.485,0.365 0.714,0.755 0.089,-0.036 0.176,-0.071 0.275,-0.118 m -5.298,-1.924 c 0.098,0 0.197,0 0.295,-0.012 -0.055,0.543 -1.008,1.311 -1.337,1.311 0.329,-0.401 0.701,-0.792 1.042,-1.299 m 0.218,-9.646 c -0.065,0.107 -0.12,0.213 -0.175,0.32 -0.483,-0.07 -0.515,-0.07 -0.701,-0.554 0.053,-0.083 0.12,-0.178 0.186,-0.273 0.197,0 0.559,0.284 0.69,0.507 M -12.131,1.983 V 1.664 c 0.877,0.01 1.754,0.023 2.633,0.023 -1.034,0.732 -1.591,0.519 -2.633,0.296 M -12.186,1.096 C -12.197,0.99 -12.21,0.883 -12.21,0.778 c 0.475,0.034 0.593,0.347 0.879,-0.176 -0.108,-0.096 -0.22,-0.189 -0.33,-0.297 0.044,-0.082 0.089,-0.175 0.133,-0.27 0.373,0 0.744,-0.014 1.129,-0.026 V 0.27 l -0.264,0.035 c -0.187,0.309 -0.064,0.402 0.01,0.627 0.133,0.011 0.276,0.024 0.419,0.024 v 0.259 c -0.999,0.236 -1.086,0.177 -1.952,-0.119 m 0.766,-1.226 c -0.076,-0.107 -0.131,-0.168 -0.131,-0.367 0.417,0.013 0.834,0.024 1.262,0.024 -0.385,0.117 -0.758,0.236 -1.131,0.343 m -1.908,-1.065 c -0.087,-0.141 -0.174,-0.283 -0.252,-0.434 l -0.735,0.035 -0.066,-0.144 0.231,-0.21 c 0.394,0.022 0.79,0.036 1.197,0.045 l -0.299,0.708 z m -9.796,19.786 c -0.723,1.441 -1.988,-0.141 -0.638,-0.625 0.419,0.141 0.449,0.176 0.638,0.625 m 0,4.912 c -0.395,0.731 -0.911,0.755 -1.261,0 0.174,-0.38 0.121,-0.366 0.623,-0.555 0.354,0.095 0.473,0.189 0.638,0.555 m 1.404,-2.491 c 0.163,-0.366 0.131,-0.449 0.625,-0.624 1.426,0.375 -0.045,2.148 -0.625,0.624 m -4.302,-0.07 c 0,1.475 -2.216,0.094 -0.581,-0.554 0.331,0.034 0.449,0.294 0.581,0.554 m -5.165,-18.83 c -0.186,0.094 -0.275,0.035 -0.364,0.035 -0.076,0.213 -0.153,0.414 -0.218,0.613 -0.572,0.204 -1.119,-0.495 -1.119,-1.073 0.098,0.096 0.197,0.19 0.297,0.271 0.087,-0.071 0.176,-0.153 0.262,-0.236 0,-0.107 -0.165,-0.271 -0.252,-0.391 0.098,-0.045 0.208,-0.092 0.318,-0.151 0.46,0.259 0.712,0.494 1.076,0.932 m -2.525,0.07 c 0.451,0 1.297,0.839 1.833,1.122 -0.066,0.118 -0.132,0.224 -0.187,0.332 -0.777,0.093 -1.37,-0.815 -1.646,-1.454 m 0.066,-2.856 c -1.119,1.675 -1.239,1.829 -1.281,3.66 -1.405,-1.099 0.535,-3.599 0.963,-5.099 0,-0.013 0,-0.024 0.011,-0.038 0.33,0.144 0.307,1.24 0.307,1.477 m 1.241,-5.75 c -0.517,-0.743 -0.517,-3.174 -0.517,-4.097 0.011,0 0.024,0 0.045,-0.009 0,-0.733 -0.417,-0.981 0.428,-1.394 0.023,0 0.055,0 0.089,-0.013 0.173,1.747 0.415,3.624 0.262,5.301 -0.11,0.071 -0.209,0.141 -0.307,0.212 m 0.691,0.025 c 0.023,-1.889 -0.055,-3.92 0.163,-5.89 0.131,0.01 0.275,0.021 0.417,0.021 -0.121,1.961 -0.239,3.92 -0.351,5.869 z m 0.438,0.093 c 0,-2.031 0.384,-4.13 0.67,-6.221 0.099,-0.045 0.207,-0.105 0.317,-0.164 0.024,0 0.043,0 0.066,-0.012 -0.163,2.182 -0.318,4.401 -0.832,6.443 -0.079,-0.01 -0.155,-0.021 -0.221,-0.046 m -8.238,3.742 c 0.449,0.497 0.888,0.91 0.757,1.558 -0.429,-0.224 -0.626,-1.036 -0.767,-1.52 0,-0.014 0,-0.026 0.01,-0.038 m -1.745,1.653 c -0.454,0.121 -0.06,0.389 -0.57,-0.023 0.076,-0.093 0.165,-0.188 0.252,-0.283 0.066,0 0.252,0.236 0.318,0.306 m 4.772,-20.682 c 0,-0.329 0.076,-0.472 0.286,-0.838 0.1,0.071 0.208,0.129 0.318,0.19 -0.034,0.754 -0.121,0.836 -0.604,0.648 m 12.409,-0.791 c -0.123,-0.14 -0.243,-0.296 -0.364,-0.449 0.131,-0.117 0.265,-0.248 0.407,-0.377 0.065,0 0.065,0 0.548,0.223 0.045,0.167 -0.065,0.413 -0.065,0.427 z m 8.457,-0.33 c 0,-0.259 0.23,-0.402 0.539,-0.484 0.142,0.023 0.284,0.034 0.427,0.046 0.032,0.165 0.022,0.332 0.022,0.379 -0.384,0.189 -0.703,0.249 -0.988,0.059 m 10.323,4.877 c 0.1,0.387 0.013,0.378 -0.163,0.601 -0.428,-0.023 -0.496,-0.354 -0.638,-0.354 0.123,-0.132 0.242,-0.273 0.363,-0.413 0.142,0.056 0.286,0.116 0.438,0.166 m -1.284,1.415 c 0.242,0.518 0.187,0.413 -0.054,0.766 h -0.505 c -0.089,-0.139 -0.165,-0.293 -0.241,-0.447 0.097,-0.119 0.197,-0.249 0.307,-0.379 0.165,0.025 0.33,0.048 0.493,0.06 m -2.073,1.474 c 0.055,0.168 0.112,0.319 0.165,0.472 -0.417,0.639 -0.362,0.286 -0.977,-0.093 0.1,-0.115 0.197,-0.249 0.297,-0.379 z m -2.326,10.389 c -0.417,-0.671 -0.458,-0.594 0.12,-1.232 0.198,0.024 0.407,-0.017 0.615,-0.007 0.241,0.39 0.352,0.603 0.317,1.062 -0.491,0.249 -0.58,0.225 -1.052,0.177 m 1,-0.271 c -0.045,-0.365 -0.087,-0.519 -0.308,-0.838 l -0.625,0.044 c -0.561,1.002 0.077,1.171 0.933,0.794 m -0.166,-0.081 -0.658,0.175 -0.229,-0.389 c 0.197,-0.141 0.405,-0.283 0.614,-0.437 h 0.066 c 0.186,0.296 0.207,0.367 0.207,0.651 m -0.614,0.07 c 0.187,-0.035 0.375,-0.085 0.559,-0.13 0,-0.154 -0.052,-0.284 -0.175,-0.473 h -0.053 l -0.494,0.354 z m -11.046,-11.015 c -0.068,-0.153 -0.133,-0.318 -0.188,-0.484 0.165,-0.117 0.34,-0.247 0.516,-0.378 0.142,0 0.429,0.165 0.625,0.236 0,0.19 -0.317,0.568 -0.328,0.593 z m 2.116,-4.603 c -0.165,-0.048 -0.33,-0.108 -0.482,-0.167 -0.035,-0.14 -0.056,-0.282 -0.079,-0.435 0.112,-0.107 0.22,-0.225 0.341,-0.344 0.748,0.095 0.462,0.58 0.22,0.946 m -3.838,2.03 c -0.286,0.012 -0.561,0.023 -0.835,0.023 -0.034,-0.155 -0.034,-0.258 -0.034,-0.497 l 0.394,-0.105 c 0.418,0 0.562,0.214 0.475,0.579 m -6.166,3.27 c 0,-0.401 0.033,-0.448 0.373,-0.78 0.141,0 0.427,0.297 0.569,0.413 0,0.933 -0.625,0.474 -0.942,0.367 m -2.019,-1.852 h -0.627 c 0.023,-0.508 0.023,-0.508 0.055,-0.627 0.11,-0.046 0.11,-0.046 0.407,-0.084 0.506,0 0.252,0.486 0.165,0.711 m 2.567,-2.848 -0.065,-0.247 c 0.055,-0.083 0.12,-0.166 0.186,-0.257 0.186,0 0.371,-0.014 0.559,-0.026 -0.021,0.366 -0.034,0.391 -0.165,0.603 z m -3.116,-1.817 c 0.142,0.014 0.142,0.014 0.712,0.189 l -0.547,0.627 c -0.175,0 -0.243,-0.108 -0.374,-0.165 v -0.498 c 0.067,-0.046 0.131,-0.096 0.209,-0.153 m -4.959,2.773 c -0.296,0.131 -0.307,0.06 -0.527,-0.01 -0.022,-0.331 0.099,-0.473 0.309,-0.837 0.504,0.175 0.328,0.353 0.218,0.847 m 0.504,1.595 c 0,-0.271 0.1,-0.39 0.286,-0.695 0.1,0.056 0.208,0.116 0.318,0.166 0,0.589 -0.157,0.722 -0.604,0.529 m -1.864,3.272 c 0.034,-0.404 0.079,-0.463 0.394,-0.876 0.1,0.059 0.21,0.118 0.318,0.167 0,0.767 -0.108,0.942 -0.712,0.709 m 2.513,1.18 c 0.404,0.518 0.394,0.434 0.131,0.862 -0.144,0.011 -0.275,0.011 -0.407,0.011 -0.218,-0.509 -0.252,-0.379 0.055,-0.873 z m 4.362,8.912 c 0.19,-0.087 0.275,-0.34 0.124,-0.792 -0.087,-0.036 -0.165,-0.07 -0.241,-0.115 -0.517,0.055 -0.615,0.353 -0.549,0.766 0.158,0.106 0.317,0.165 0.455,0.175 -0.137,0.007 -0.297,-0.011 -0.487,-0.069 -0.152,-0.508 -0.01,-0.872 0.536,-0.957 0.602,0.16 0.671,0.826 0.162,0.992 m -0.211,0.034 c 0.078,-0.004 0.15,-0.014 0.211,-0.034 -0.061,0.028 -0.132,0.04 -0.211,0.034 m 24.173,-18.992 c 1.153,0.213 2.447,0.98 3.403,1.806 -1.955,0.637 -3.644,1.462 -5.421,2.289 -1.129,0.909 -3.366,2.502 -4.728,2.502 0.79,-2.548 4.478,-5.949 6.746,-6.597 m -5.583,5.513 c -0.252,0.307 -0.636,0.613 -0.712,0.778 1.063,0 3.065,-1.61 3.816,-2.085 0.532,-0.336 0.65,-0.416 1.307,-0.735 1.427,-0.389 2.668,-1.579 4.275,-1.688 -0.694,0.047 -2.353,-1.225 -3.023,-1.225 -0.758,0.083 -2.589,0.893 -2.722,1.388 -1.062,1.429 -2.602,1.701 -2.941,3.567 m -23.214,-7.084 c -1.656,-0.213 -3.279,-0.661 -4.705,-1.452 0,-0.095 0.121,-0.212 0.219,-0.355 0.921,0.19 3.279,1.121 4.135,0.945 0.792,-0.897 1.381,-1.429 2.414,-2.171 2.095,-0.746 2.919,1.463 4.387,1.463 3.172,-3.412 2.951,-1.89 6.749,-0.296 0.043,0.013 2.752,-1.993 4.08,-2.113 1.481,0.106 2.381,1.44 3.839,1.44 2.951,-1.252 3.39,-1.073 6.099,0.673 1.591,0.46 3.436,-0.862 5.487,-0.165 -0.024,0.06 -0.045,0.107 -0.066,0.153 -1.932,0.225 -3.906,0.957 -5.749,0.897 -1.887,-1.617 -3.105,-2.561 -5.277,-1.037 0.011,0.022 0.021,0.035 0.034,0.047 -0.013,0.01 -0.023,0.023 -0.023,0.034 -0.042,0 -0.087,0 -0.121,-0.011 -0.823,0.884 -0.954,0.53 -1.829,0.061 -2.197,-2.092 -3.764,-1.739 -5.597,0.469 -2.183,1.63 -3.421,-3.304 -6.494,-0.495 -1.329,1.487 -1.108,1.406 -2.864,0.235 -2.468,-1.369 -3.082,-0.188 -4.718,1.678 m -2.853,-3.259 c 3.008,0.471 1.843,1.109 4.531,-0.897 1.8,-0.898 2.523,0.118 4.444,0.472 1.394,-1.191 3.072,-1.534 4.936,-1.427 2.622,1.595 1.735,1.416 4.082,-0.379 0.231,-0.118 0.58,-0.107 0.877,-0.317 1.766,0 2.533,0.128 4.059,1.204 1.612,0.779 3.324,-0.994 5.65,-0.038 1.888,0.876 2.731,0.651 4.806,0.697 -0.012,0.165 -0.023,0.332 -0.023,0.484 -3.213,0.567 -2.862,1.123 -5.332,-0.614 -2.205,-0.966 -3.586,1.111 -5.419,0.273 -3.62,-2.656 -3.62,-0.083 -6.91,0.578 -2.25,-1.087 -2.765,-1.548 -5.158,-0.518 -0.46,0.318 -1.25,1.013 -1.623,1.086 -2.667,-1.075 -3.124,-1.937 -5.453,-0.094 -1.008,0.718 -3.247,1.145 -3.467,-0.51 m 6.211,-2.148 c 0.065,-0.13 0.131,-0.261 0.207,-0.4 0.593,0 0.945,0.035 1.591,0.258 0.023,-0.023 0.045,-0.048 0.066,-0.084 1.669,0 1.921,-0.412 3.533,-0.883 1.305,-0.272 2.798,0.544 4.146,0.673 1.614,-0.614 2.042,-0.956 4.027,-1.181 1.25,0.036 2.018,0.165 3.203,0.826 1.329,0.614 1.734,-0.367 3.458,-0.071 0.053,0.119 0.108,0.224 0.173,0.332 -1.152,0.4 -3.488,1.545 -4.235,0.165 -1.381,-0.685 -3.017,-0.723 -4.432,-0.426 -0.845,0.391 -1.381,1.087 -2.205,1.087 -1.271,-0.332 -3.499,-1.394 -4.628,-0.413 -2.579,1.262 -2.206,1.05 -4.904,0.117 m 7.371,-1.82 c -0.033,-0.104 -0.086,-0.329 -0.186,-0.434 0.428,-0.698 1.712,0.116 2.161,0.365 0.701,0 1.436,-0.401 2.228,-0.697 0.076,0.035 0.163,0.238 0.218,0.343 -1.732,1.369 -2.436,0.827 -4.421,0.423" /></g><g
           transform="translate(48.2767,26.1583)"
           id="g24"><path
             id="path26"
             style="fill:hsl(215, 80%, 78%);fill-opacity:1;fill-rule:nonzero;stroke:none"
             d="m 0,0 c 0.402,-0.129 0.811,-0.312 1.107,-0.511 l -0.405,-1.265 -0.5,0.161 c -0.036,0.229 -0.051,0.495 -0.038,0.691 -0.121,0.118 -0.329,0.254 -0.601,0.341 -0.342,0.109 -0.673,0.067 -0.792,-0.304 -0.283,-0.885 1.938,-1.231 1.478,-2.669 -0.238,-0.743 -1.082,-1.109 -2.25,-0.735 -0.341,0.11 -0.743,0.291 -1.026,0.451 l 0.39,1.217 0.493,-0.158 c 0.04,-0.239 0.058,-0.524 0.04,-0.71 0.083,-0.079 0.291,-0.189 0.473,-0.247 0.379,-0.121 0.659,-0.028 0.763,0.296 0.258,0.806 -1.968,1.24 -1.518,2.647 C -2.138,-0.021 -1.228,0.393 0,0" /></g><g
           transform="translate(44.6407,27.4569)"
           id="g28"><path
             id="path30"
             style="fill:hsl(215, 80%, 78%);fill-opacity:1;fill-rule:nonzero;stroke:none"
             d="m 0,0 -0.202,-0.362 c -0.221,-0.019 -0.461,-0.009 -0.681,0.038 l -1.522,-2.723 c 0.145,-0.148 0.29,-0.361 0.393,-0.552 l -0.198,-0.355 -2.008,1.122 0.198,0.355 c 0.217,0.012 0.475,10e-4 0.677,-0.045 l 1.522,2.723 C -1.976,0.363 -2.111,0.562 -2.21,0.76 l 0.202,0.362 z" /></g><g
           transform="translate(36.9281,31.1945)"
           id="g32"><path
             id="path34"
             style="fill:hsl(215, 80%, 78%);fill-opacity:1;fill-rule:nonzero;stroke:none"
             d="M 0,0 0.935,0.965 C 1.509,0.791 2.105,0.456 2.619,-0.042 3.648,-1.039 3.67,-2.309 2.741,-3.268 1.702,-4.341 0.294,-4.329 -0.9,-3.171 c -0.349,0.338 -0.697,0.756 -0.942,1.144 l 0.929,0.959 0.383,-0.371 c -0.053,-0.226 -0.145,-0.448 -0.25,-0.636 0.114,-0.225 0.291,-0.477 0.548,-0.727 0.646,-0.626 1.422,-0.419 2.051,0.23 0.607,0.626 0.737,1.47 0.051,2.134 -0.148,0.144 -0.308,0.277 -0.469,0.363 L 0.76,-0.737 C 0.84,-0.883 0.896,-1.088 0.941,-1.27 L 0.664,-1.556 -0.73,-0.205 -0.453,0.081 C -0.31,0.069 -0.149,0.052 0,0" /></g><g
           transform="translate(36.8726,34.1524)"
           id="g36"><path
             id="path38"
             style="fill:hsl(215, 80%, 78%);fill-opacity:1;fill-rule:nonzero;stroke:none"
             d="M 0,0 -0.354,-0.217 C -0.556,-0.126 -0.76,0.001 -0.929,0.15 l -2.66,-1.63 c 0.055,-0.2 0.076,-0.458 0.073,-0.674 l -0.347,-0.213 -1.202,1.961 0.347,0.212 c 0.195,-0.095 0.415,-0.231 0.568,-0.37 l 2.66,1.63 c -0.056,0.218 -0.076,0.457 -0.065,0.678 l 0.353,0.217 z" /></g><g
           transform="translate(34.7775,37.8738)"
           id="g40"><path
             id="path42"
             style="fill:hsl(215, 80%, 78%);fill-opacity:1;fill-rule:nonzero;stroke:none"
             d="m 0,0 -0.388,-0.147 c -0.171,0.122 -0.355,0.282 -0.496,0.467 l -2.917,-1.106 c 0.016,-0.207 -0.008,-0.471 -0.055,-0.676 l -0.38,-0.144 -0.815,2.15 0.38,0.144 c 0.17,-0.122 0.367,-0.312 0.489,-0.47 l 2.979,1.13 -0.385,0.944 C -1.778,2.279 -2.071,2.279 -2.325,2.293 l -0.186,0.491 1.272,0.483 z" /></g><g
           transform="translate(33.0362,43.0056)"
           id="g44"><path
             id="path46"
             style="fill:hsl(215, 80%, 78%);fill-opacity:1;fill-rule:nonzero;stroke:none"
             d="m 0,0 -0.406,-0.085 c -0.15,0.148 -0.307,0.335 -0.418,0.539 l -3.053,-0.637 c -0.016,-0.207 -0.082,-0.464 -0.159,-0.66 l -0.398,-0.083 -0.47,2.252 0.398,0.084 C -4.357,1.262 -4.193,1.044 -4.097,0.869 L -0.978,1.52 -1.21,2.512 C -1.4,2.529 -1.69,2.575 -1.938,2.629 l -0.107,0.514 1.332,0.278 z" /></g><g
           transform="translate(27.8696,52.1464)"
           id="g48"><path
             id="path50"
             style="fill:hsl(215, 80%, 78%);fill-opacity:1;fill-rule:nonzero;stroke:none"
             d="M 0,0 2.026,0.167 C 3.267,0.266 3.971,-0.464 4.072,-1.638 4.195,-3.065 3.51,-3.62 2.509,-3.706 L 0.335,-3.894 C 0.29,-4.041 0.173,-4.235 0.084,-4.355 l -0.405,-0.035 -0.175,2.023 0.405,0.034 C 0.031,-2.482 0.17,-2.654 0.244,-2.831 l 2,0.173 c 0.753,0.064 1.176,0.365 1.107,1.166 -0.055,0.65 -0.472,0.941 -1.149,0.875 L 0.071,-0.825 C 0.037,-1.011 -0.087,-1.214 -0.173,-1.373 l -0.405,-0.035 -0.155,1.792 0.405,0.035 C -0.218,0.309 -0.063,0.146 0,0" /></g><g
           transform="translate(31.6498,59.3104)"
           id="g52"><path
             id="path54"
             style="fill:hsl(215, 80%, 78%);fill-opacity:1;fill-rule:nonzero;stroke:none"
             d="M 0,0 -0.415,0.008 C -0.537,0.145 -0.666,0.331 -0.696,0.49 L -3.301,0.116 V 0.108 l 3.28,-1.222 -0.013,-0.74 L -3.4,-3.01 v -0.008 l 2.616,-0.319 c 0.078,0.182 0.197,0.339 0.316,0.472 l 0.415,-0.008 -0.031,-1.686 -0.415,0.007 c -0.098,0.113 -0.203,0.243 -0.284,0.379 l -3.118,0.575 c -0.078,-0.19 -0.189,-0.371 -0.3,-0.536 l -0.407,0.008 0.033,1.782 3,1.075 v 0.016 l -2.959,1.137 0.033,1.783 0.415,-0.008 c 0.097,-0.169 0.21,-0.346 0.272,-0.554 l 3.139,0.539 c 0.069,0.126 0.179,0.26 0.297,0.361 L 0.037,1.997 Z" /></g><g
           transform="translate(30.1013,64.6129)"
           id="g56"><path
             id="path58"
             style="fill:hsl(215, 80%, 78%);fill-opacity:1;fill-rule:nonzero;stroke:none"
             d="m 0,0 c -0.041,-0.34 -0.353,-0.575 -0.707,-0.533 -0.355,0.043 -0.603,0.345 -0.562,0.685 0.041,0.34 0.354,0.583 0.708,0.54 C -0.206,0.65 0.041,0.34 0,0" /></g><g
           transform="translate(29.6983,72.4071)"
           id="g60"><path
             id="path62"
             style="fill:hsl(215, 80%, 78%);fill-opacity:1;fill-rule:nonzero;stroke:none"
             d="M 0,0 1.975,-0.482 C 3.183,-0.781 3.62,-1.696 3.345,-2.842 3.011,-4.235 2.186,-4.544 1.21,-4.31 l -2.122,0.51 c -0.09,-0.126 -0.261,-0.273 -0.384,-0.358 l -0.395,0.095 0.473,1.973 0.395,-0.095 c 0.068,-0.18 0.146,-0.387 0.16,-0.578 l 1.952,-0.469 c 0.734,-0.176 1.231,-0.025 1.419,0.756 0.152,0.635 -0.151,1.043 -0.814,1.195 l -2.087,0.476 c -0.091,-0.166 -0.273,-0.319 -0.405,-0.443 l -0.395,0.095 0.419,1.749 0.396,-0.095 C -0.109,0.362 -0.013,0.159 0,0" /></g><g
           transform="translate(32.9305,79.9643)"
           id="g64"><path
             id="path66"
             style="fill:hsl(215, 80%, 78%);fill-opacity:1;fill-rule:nonzero;stroke:none"
             d="m 0,0 3.438,-1.749 -0.43,-0.844 -4.052,-0.52 2.405,-1.072 c 0.139,0.126 0.314,0.234 0.516,0.354 L 2.246,-4.019 1.369,-5.743 1,-5.555 c -0.021,0.234 -0.035,0.464 -0.007,0.647 l -2.755,1.446 c -0.152,-0.155 -0.35,-0.286 -0.544,-0.411 l -0.362,0.184 0.816,1.604 3.615,0.465 -2.102,0.953 C -0.47,-0.797 -0.65,-0.893 -0.833,-0.978 l -0.362,0.184 0.769,1.511 0.362,-0.184 C -0.029,0.345 0.006,0.176 0,0" /></g><g
           transform="translate(38.0239,80.5128)"
           id="g68"><path
             id="path70"
             style="fill:hsl(215, 80%, 78%);fill-opacity:1;fill-rule:nonzero;stroke:none"
             d="m 0,0 -0.307,0.279 c 0.032,0.22 0.097,0.451 0.192,0.655 L -2.42,3.035 C -2.597,2.927 -2.839,2.835 -3.048,2.778 l -0.3,0.274 1.549,1.7 0.301,-0.274 C -1.536,4.264 -1.605,4.016 -1.696,3.829 L 0.609,1.728 c 0.194,0.114 0.419,0.2 0.634,0.252 L 1.55,1.7 Z" /></g><g
           transform="translate(42.943,89.3375)"
           id="g72"><path
             id="path74"
             style="fill:hsl(215, 80%, 78%);fill-opacity:1;fill-rule:nonzero;stroke:none"
             d="m 0,0 0.733,-4.092 -0.836,-0.509 -3.313,2.528 c -0.132,-0.012 -0.287,0.029 -0.441,0.052 l -0.212,0.347 1.706,1.04 0.212,-0.347 c -0.074,-0.171 -0.155,-0.328 -0.268,-0.494 l 2.329,-1.816 0.013,0.008 -0.677,2.823 C -0.92,-0.493 -1.146,-0.475 -1.316,-0.472 l -0.211,0.347 1.454,0.887 0.212,-0.347 C 0.104,0.287 0.074,0.123 0,0" /></g><g
           transform="translate(47.3936,87.051)"
           id="g76"><path
             id="path78"
             style="fill:hsl(215, 80%, 78%);fill-opacity:1;fill-rule:nonzero;stroke:none"
             d="m 0,0 -0.114,0.399 c 0.139,0.152 0.312,0.33 0.508,0.455 l -0.851,2.992 c -0.21,0.01 -0.476,0.072 -0.672,0.12 L -1.24,4.357 2.067,5.298 2.381,4.197 1.883,4.055 C 1.76,4.167 1.579,4.366 1.496,4.514 l -0.95,-0.27 0.362,-1.268 0.78,0.222 c 0.01,0.141 0.073,0.296 0.117,0.404 L 2.219,3.719 2.573,2.475 2.159,2.357 C 2.071,2.435 1.915,2.546 1.843,2.655 L 1.062,2.433 1.455,1.052 2.404,1.323 C 2.398,1.519 2.444,1.765 2.49,1.951 L 2.995,2.095 3.322,0.946 Z" /></g><g
           transform="translate(57.511,88.8449)"
           id="g80"><path
             id="path82"
             style="fill:hsl(215, 80%, 78%);fill-opacity:1;fill-rule:nonzero;stroke:none"
             d="M 0,0 -0.059,0.486 C -0.662,0.35 -0.735,2.01 -1.515,2.058 -0.927,2.276 -0.598,2.713 -0.646,3.267 -0.723,4.143 -1.373,4.453 -2.523,4.352 -3.158,4.296 -3.908,4.197 -4.091,4.181 L -4.654,4.132 -4.618,3.727 C -4.426,3.635 -4.202,3.538 -3.982,3.491 L -3.709,0.383 C -3.933,0.296 -4.145,0.161 -4.294,0.032 l 0.036,-0.414 2.142,0.188 -0.037,0.413 c -0.143,0.088 -0.329,0.205 -0.509,0.256 l -0.102,1.157 0.254,0.022 c 0.777,0.068 0.764,-1.882 1.795,-1.792 C -0.469,-0.116 -0.193,-0.075 0,0 M -2.454,2.284 -2.818,2.252 -2.94,3.641 c 0.078,0.023 0.219,0.044 0.283,0.049 0.595,0.053 0.903,-0.179 0.944,-0.65 0.033,-0.38 -0.17,-0.706 -0.741,-0.756" /></g><g
           transform="translate(61.2732,88.683)"
           id="g84"><path
             id="path86"
             style="fill:hsl(215, 80%, 78%);fill-opacity:1;fill-rule:nonzero;stroke:none"
             d="M 0,0 C -0.421,0.02 -0.864,0.09 -1.202,0.205 L -1.14,1.531 -0.615,1.507 C -0.521,1.295 -0.438,1.042 -0.399,0.849 -0.251,0.768 -0.016,0.69 0.27,0.677 0.628,0.66 0.937,0.787 0.955,1.177 0.998,2.105 -1.236,1.86 -1.166,3.368 -1.129,4.148 -0.409,4.721 0.815,4.664 1.173,4.647 1.608,4.577 1.922,4.496 L 1.863,3.22 1.346,3.244 C 1.245,3.464 1.154,3.734 1.123,3.918 1.022,3.973 0.793,4.025 0.602,4.034 0.205,4.052 -0.042,3.889 -0.058,3.55 -0.097,2.704 2.165,2.865 2.096,1.39 2.058,0.577 1.288,-0.06 0,0" /></g><g
           transform="translate(65.7361,88.3867)"
           id="g88"><path
             id="path90"
             style="fill:hsl(215, 80%, 78%);fill-opacity:1;fill-rule:nonzero;stroke:none"
             d="m 0,0 0.074,0.408 c 0.202,0.09 0.433,0.158 0.657,0.185 L 1.288,3.662 C 1.103,3.755 0.896,3.911 0.737,4.058 L 0.81,4.458 3.073,4.046 3,3.646 C 2.799,3.565 2.551,3.492 2.345,3.47 L 1.787,0.4 c 0.2,-0.103 0.392,-0.248 0.55,-0.403 L 2.263,-0.411 Z" /></g><g
           transform="translate(74.9554,89.0021)"
           id="g92"><path
             id="path94"
             style="fill:hsl(215, 80%, 78%);fill-opacity:1;fill-rule:nonzero;stroke:none"
             d="m 0,0 c -0.013,0.246 -0.029,0.574 0.002,0.803 l -0.71,0.282 -1.18,-2.968 c 0.174,-0.123 0.335,-0.321 0.466,-0.507 l -0.153,-0.386 -2.145,0.853 0.153,0.386 c 0.231,0.042 0.477,0.078 0.688,0.048 l 1.18,2.968 -0.71,0.283 C -2.533,1.579 -2.786,1.331 -2.959,1.177 L -3.417,1.359 -2.911,2.631 0.972,1.087 0.466,-0.185 Z" /></g><g
           transform="translate(80.959,86.8218)"
           id="g96"><path
             id="path98"
             style="fill:hsl(215, 80%, 78%);fill-opacity:1;fill-rule:nonzero;stroke:none"
             d="M 0,0 -0.909,0.711 -4.43,-1.455 c -0.141,0.026 -0.322,0.041 -0.477,0.036 l -0.255,-0.327 1.323,-1.034 0.255,0.327 c -0.045,0.162 -0.103,0.333 -0.2,0.493 l 0.473,0.283 1.286,-1.005 -0.16,-0.527 c -0.172,0.05 -0.365,0.075 -0.533,0.08 l -0.256,-0.327 1.575,-1.23 0.255,0.327 c -0.019,0.13 -0.069,0.285 -0.125,0.434 z m -1.17,-0.244 c -0.074,-0.184 -0.152,-0.375 -0.217,-0.588 l -0.418,-1.284 -1.016,0.794 1.177,0.743 c 0.179,0.113 0.334,0.234 0.467,0.34 z" /></g><g
           transform="translate(85.3984,79.6181)"
           id="g100"><path
             id="path102"
             style="fill:hsl(215, 80%, 78%);fill-opacity:1;fill-rule:nonzero;stroke:none"
             d="M 0,0 C 0.125,0.213 0.293,0.494 0.446,0.668 L 0.01,1.295 -2.615,-0.525 c 0.077,-0.199 0.102,-0.453 0.109,-0.681 l -0.341,-0.236 -1.316,1.896 0.341,0.237 c 0.216,-0.093 0.441,-0.199 0.599,-0.34 l 2.625,1.82 -0.435,0.628 C -1.238,2.716 -1.585,2.649 -1.815,2.616 l -0.281,0.405 1.125,0.78 2.382,-3.433 -1.125,-0.78 z" /></g><g
           transform="translate(84.1006,75.2333)"
           id="g104"><path
             id="path106"
             style="fill:hsl(215, 80%, 78%);fill-opacity:1;fill-rule:nonzero;stroke:none"
             d="M 0,0 0.385,0.154 C 0.569,0.03 0.749,-0.129 0.89,-0.304 L 3.786,0.855 C 3.766,1.061 3.789,1.318 3.828,1.531 L 4.206,1.682 5.06,-0.453 4.683,-0.604 c -0.176,0.127 -0.37,0.298 -0.497,0.461 L 1.289,-1.301 C 1.307,-1.526 1.287,-1.765 1.24,-1.981 L 0.855,-2.135 Z" /></g><g
           transform="translate(85.919,69.4116)"
           id="g108"><path
             id="path110"
             style="fill:hsl(215, 80%, 78%);fill-opacity:1;fill-rule:nonzero;stroke:none"
             d="M 0,0 C -0.094,0.411 -0.144,0.857 -0.123,1.213 L 1.172,1.507 1.289,0.995 C 1.109,0.848 0.888,0.7 0.712,0.611 0.673,0.447 0.661,0.199 0.725,-0.08 0.804,-0.429 1.009,-0.693 1.389,-0.606 2.295,-0.4 1.463,1.687 2.936,2.022 3.696,2.195 4.44,1.654 4.712,0.459 4.792,0.11 4.84,-0.328 4.846,-0.653 L 3.6,-0.936 3.485,-0.432 c 0.186,0.157 0.422,0.316 0.591,0.396 C 4.102,0.076 4.091,0.31 4.049,0.496 3.96,0.884 3.738,1.078 3.406,1.003 2.58,0.815 3.339,-1.322 1.899,-1.65 1.105,-1.83 0.286,-1.257 0,0" /></g><g
           transform="translate(88.8327,64.6128)"
           id="g112"><path
             id="path114"
             style="fill:hsl(215, 80%, 78%);fill-opacity:1;fill-rule:nonzero;stroke:none"
             d="M 0,0 C -0.041,0.34 0.207,0.642 0.561,0.685 0.916,0.727 1.228,0.492 1.269,0.152 1.31,-0.188 1.063,-0.498 0.708,-0.54 0.354,-0.583 0.041,-0.34 0,0" /></g><g
           transform="translate(87.1856,61.3977)"
           id="g116"><path
             id="path118"
             style="fill:hsl(215, 80%, 78%);fill-opacity:1;fill-rule:nonzero;stroke:none"
             d="m 0,0 0.414,0.018 c 0.124,-0.17 0.249,-0.38 0.325,-0.6 l 3.116,0.132 c 0.05,0.201 0.156,0.445 0.265,0.625 L 4.526,0.192 4.623,-2.106 4.217,-2.123 c -0.124,0.17 -0.25,0.411 -0.316,0.6 L 0.718,-1.658 0.786,-2.675 C 0.97,-2.723 1.248,-2.815 1.485,-2.908 L 1.507,-3.433 0.148,-3.491 Z" /></g><g
           transform="translate(91.0046,51.3767)"
           id="g120"><path
             id="path122"
             style="fill:hsl(215, 80%, 78%);fill-opacity:1;fill-rule:nonzero;stroke:none"
             d="m 0,0 -2.03,0.093 c -1.243,0.061 -1.849,0.875 -1.799,2.052 0.06,1.431 0.81,1.893 1.813,1.851 L 0.164,3.904 C 0.228,4.045 0.368,4.223 0.473,4.33 L 0.879,4.313 0.794,2.285 0.387,2.302 C 0.286,2.465 0.17,2.654 0.119,2.839 L -1.887,2.923 C -2.641,2.955 -3.099,2.712 -3.133,1.908 -3.161,1.256 -2.785,0.914 -2.105,0.893 L 0.035,0.827 C 0.092,1.008 0.241,1.193 0.347,1.34 L 0.753,1.323 0.678,-0.475 0.272,-0.458 C 0.177,-0.334 0.043,-0.153 0,0" /></g><g
           transform="translate(91.3967,48.0837)"
           id="g124"><path
             id="path126"
             style="fill:hsl(215, 80%, 78%);fill-opacity:1;fill-rule:nonzero;stroke:none"
             d="M 0,0 -0.401,0.067 C -0.547,-0.102 -0.7,-0.31 -0.789,-0.489 l -3.077,0.515 c -0.03,0.223 -0.101,0.453 -0.193,0.654 l -0.41,0.069 -0.102,-0.613 c -0.102,-0.604 -0.209,-1.143 -0.272,-1.52 -0.259,-1.546 0.39,-2.244 1.077,-2.359 0.491,-0.083 1.014,0.177 1.212,0.854 0.048,-0.565 0.393,-0.865 0.811,-0.935 0.736,-0.123 1.197,0.364 1.393,1.534 0.097,0.581 0.186,1.309 0.25,1.693 z m -2.73,-1.229 -0.066,-0.393 c -0.115,-0.683 -0.416,-1.076 -0.874,-0.999 -0.385,0.064 -0.677,0.379 -0.576,0.984 0.046,0.275 0.116,0.489 0.19,0.63 z m 1.857,-0.312 c -0.009,-0.159 -0.033,-0.301 -0.066,-0.497 -0.099,-0.589 -0.421,-0.753 -0.797,-0.69 -0.377,0.064 -0.621,0.314 -0.51,0.974 0.027,0.164 0.052,0.314 0.08,0.43 z" /></g><g
           transform="translate(85.6971,42.5284)"
           id="g128"><path
             id="path130"
             style="fill:hsl(215, 80%, 78%);fill-opacity:1;fill-rule:nonzero;stroke:none"
             d="m 0,0 0.393,-0.133 c 0.046,-0.2 0.095,-0.444 0.086,-0.676 l 2.948,-0.998 c 0.127,0.168 0.329,0.351 0.479,0.485 l 0.386,-0.13 -1.103,-3.257 -1.085,0.367 0.166,0.49 c 0.162,0.038 0.428,0.074 0.598,0.058 L 3.184,-2.859 1.935,-2.436 1.674,-3.205 C 1.785,-3.293 1.877,-3.433 1.941,-3.53 l -0.138,-0.408 -1.226,0.415 0.138,0.408 c 0.114,0.028 0.294,0.093 0.425,0.091 l 0.26,0.769 -1.359,0.46 -0.317,-0.935 c 0.165,-0.106 0.342,-0.283 0.468,-0.427 l -0.168,-0.498 -1.132,0.383 z" /></g><g
           transform="translate(82.44,35.2585)"
           id="g132"><path
             id="path134"
             style="fill:hsl(215, 80%, 78%);fill-opacity:1;fill-rule:nonzero;stroke:none"
             d="M 0,0 C 0.79,1.308 1.858,1.584 3.051,0.863 4.45,0.018 4.68,-1.302 3.952,-2.508 3.68,-2.958 3.405,-3.285 3.166,-3.521 l -1.279,0.772 0.28,0.463 C 2.424,-2.31 2.703,-2.377 2.916,-2.459 3.065,-2.372 3.227,-2.2 3.35,-1.996 3.708,-1.403 3.451,-0.755 2.591,-0.236 1.775,0.258 1.065,0.11 0.534,-0.769 0.365,-1.048 0.229,-1.403 0.189,-1.741 l -0.621,0.207 C -0.449,-1.049 -0.3,-0.497 0,0" /></g><g
           transform="translate(80.3975,32.2807)"
           id="g136"><path
             id="path138"
             style="fill:hsl(215, 80%, 78%);fill-opacity:1;fill-rule:nonzero;stroke:none"
             d="M 0,0 0.285,-0.302 C 0.231,-0.5 0.16,-0.738 0.044,-0.94 L 2.179,-3.203 C 2.369,-3.115 2.634,-3.047 2.83,-3 l 0.279,-0.295 -2.502,-2.36 -0.786,0.833 0.377,0.355 c 0.16,-0.042 0.412,-0.136 0.555,-0.229 l 0.718,0.677 -0.905,0.96 -0.591,-0.557 c 0.057,-0.129 0.072,-0.297 0.083,-0.413 l -0.313,-0.295 -0.888,0.942 0.313,0.295 c 0.114,-0.029 0.304,-0.056 0.418,-0.119 l 0.591,0.557 -0.985,1.044 -0.718,-0.677 c 0.096,-0.171 0.169,-0.411 0.213,-0.597 l -0.382,-0.361 -0.82,0.87 z" /></g><g
           transform="translate(73.8058,23.1847)"
           id="g140"><path
             id="path142"
             style="fill:hsl(215, 80%, 78%);fill-opacity:1;fill-rule:nonzero;stroke:none"
             d="M 0,0 -1.696,3.465 -0.845,3.881 2.705,1.86 1.428,4.163 C 1.241,4.145 1.037,4.165 0.803,4.189 L 0.621,4.562 2.358,5.412 2.54,5.04 C 2.416,4.841 2.289,4.649 2.157,4.52 L 3.489,1.708 C 3.704,1.739 3.941,1.726 4.171,1.709 L 4.349,1.344 2.734,0.553 -0.435,2.355 0.672,0.329 C 0.855,0.354 1.056,0.323 1.254,0.281 L 1.432,-0.084 -0.09,-0.829 -0.269,-0.464 C -0.184,-0.293 -0.11,-0.137 0,0" /></g><g
           transform="translate(68.3672,25.6534)"
           id="g144"><path
             id="path146"
             style="fill:hsl(215, 80%, 78%);fill-opacity:1;fill-rule:nonzero;stroke:none"
             d="M 0,0 C 0.412,0.091 0.858,0.139 1.213,0.116 L 1.5,-1.18 0.988,-1.294 c -0.146,0.181 -0.293,0.403 -0.381,0.579 -0.164,0.04 -0.411,0.053 -0.691,-0.009 -0.35,-0.078 -0.614,-0.281 -0.53,-0.661 0.201,-0.907 2.293,-0.087 2.62,-1.561 C 2.175,-3.707 1.63,-4.448 0.433,-4.713 0.083,-4.791 -0.355,-4.837 -0.68,-4.841 l -0.276,1.247 0.505,0.112 c 0.155,-0.186 0.314,-0.423 0.392,-0.593 0.112,-0.026 0.346,-0.016 0.533,0.025 0.388,0.086 0.584,0.308 0.51,0.64 -0.183,0.826 -2.325,0.079 -2.644,1.521 C -1.836,-1.095 -1.259,-0.279 0,0" /></g><g
           transform="translate(64.257,24.8573)"
           id="g148"><path
             id="path150"
             style="fill:hsl(215, 80%, 78%);fill-opacity:1;fill-rule:nonzero;stroke:none"
             d="m 0,0 0.033,-0.414 c -0.172,-0.138 -0.378,-0.263 -0.587,-0.347 l 0.25,-3.109 c 0.203,-0.042 0.443,-0.14 0.635,-0.241 l 0.032,-0.405 -2.293,-0.185 -0.032,0.406 c 0.173,0.13 0.394,0.264 0.587,0.338 l -0.25,3.11 c -0.219,0.049 -0.443,0.14 -0.635,0.249 l -0.033,0.414 z" /></g><g
           transform="translate(58.3569,24.7158)"
           id="g152"><path
             id="path154"
             style="fill:hsl(215, 80%, 78%);fill-opacity:1;fill-rule:nonzero;stroke:none"
             d="M 0,0 C 0.422,-0.01 0.866,-0.071 1.206,-0.179 L 1.174,-1.506 0.648,-1.493 C 0.55,-1.283 0.46,-1.032 0.417,-0.84 0.268,-0.762 0.031,-0.69 -0.256,-0.683 -0.614,-0.674 -0.919,-0.807 -0.929,-1.197 -0.952,-2.126 1.277,-1.832 1.24,-3.341 1.221,-4.121 0.514,-4.71 -0.711,-4.68 c -0.358,0.009 -0.795,0.07 -1.111,0.144 l 0.031,1.277 0.517,-0.013 c 0.106,-0.218 0.203,-0.486 0.239,-0.669 0.102,-0.053 0.331,-0.1 0.522,-0.105 0.398,-0.009 0.641,0.159 0.65,0.499 0.02,0.846 -2.238,0.636 -2.202,2.112 C -2.045,-0.622 -1.289,0.032 0,0" /></g><g
           transform="translate(52.6658,23.1041)"
           id="g156"><path
             id="path158"
             style="fill:hsl(215, 80%, 78%);fill-opacity:1;fill-rule:nonzero;stroke:none"
             d="M 0,0 C 0.339,-0.049 0.566,-0.367 0.516,-0.72 0.464,-1.073 0.156,-1.313 -0.182,-1.265 -0.521,-1.216 -0.757,-0.897 -0.706,-0.544 -0.655,-0.19 -0.339,0.049 0,0" /></g></g></g></g></svg>